<svg width="54" height="63" viewBox="0 0 54 63" fill="none" xmlns="http://www.w3.org/2000/svg">
<path fill-rule="evenodd" clip-rule="evenodd" d="M19.195 0.00904068C17.7725 0.198048 16.5942 0.92045 15.8318 2.07097C15.5013 2.56975 15.2857 3.09068 15.1338 3.75737L15.0613 4.07551L15.0516 14.606L15.0419 25.1364L15.3369 25.3077C15.61 25.4663 16.3672 25.9111 17.5964 26.6351L18.0975 26.9303L18.0999 16.0437C18.1012 10.0561 18.1092 5.09277 18.1176 5.01403C18.2113 4.13472 18.7676 3.45472 19.6574 3.13207L19.8631 3.05746L26.3769 3.04906C33.6926 3.03961 33.1204 3.0211 33.6545 3.28468C34.1846 3.54628 34.5663 4.00081 34.7728 4.61635L34.8476 4.83905L34.8561 10.8519L34.8647 16.8648L36.3355 16.8571C37.1444 16.8529 37.8314 16.8494 37.8622 16.8492C37.9153 16.8488 37.918 16.541 37.9157 10.6053C37.9138 5.4508 37.9056 4.30635 37.869 4.0437C37.591 2.04851 36.191 0.533845 34.2017 0.0761047L33.8931 0.005128L26.5918 0.000737648C22.5761 -0.00168022 19.2475 0.00204159 19.195 0.00904068ZM26.3055 6.0957C22.6883 6.11046 22.3982 6.11562 22.2689 6.16735C22.004 6.27326 21.7935 6.41563 21.6081 6.61431C20.9829 7.28424 21.0009 8.30401 21.6492 8.94551C21.8753 9.16923 22.213 9.35012 22.5016 9.40214C22.7649 9.4496 30.1975 9.44944 30.4593 9.40195C31.22 9.26406 31.8093 8.55461 31.8093 7.77673C31.8093 7.30842 31.6681 6.94867 31.353 6.61472C31.0665 6.31105 30.7045 6.12838 30.3141 6.09058C30.2528 6.08466 28.449 6.08695 26.3055 6.0957ZM22.4335 12.8251C21.9152 12.9659 21.5317 13.2806 21.3131 13.7443C20.8739 14.6764 21.347 15.7285 22.3605 16.0735C22.5278 16.1304 22.7084 16.133 26.4646 16.133C30.7832 16.133 30.5166 16.145 30.9275 15.9331C31.4636 15.6567 31.8093 15.08 31.8093 14.4622C31.8093 13.7389 31.3934 13.1452 30.6963 12.8734L30.489 12.7926L26.5441 12.7863C23.229 12.7811 22.5727 12.7873 22.4335 12.8251ZM23.8876 37.9734V55.9801H22.3287H20.7698V44.0385V32.0969L19.8711 31.571C18.8994 31.0023 18.5422 30.7926 16.1727 29.3998C15.3153 28.8958 14.2845 28.2904 13.8821 28.0543C12.9288 27.4952 12.2138 27.0752 11.6233 26.7274C11.3608 26.5728 11.0316 26.3794 10.8916 26.2976C10.7516 26.2158 10.4223 26.0225 10.1599 25.8679C9.89739 25.7133 9.56096 25.5156 9.41223 25.4286C9.05451 25.2193 8.77967 25.058 7.88515 24.5322C7.47396 24.2905 7.05878 24.0473 6.96255 23.9918C6.64724 23.8098 5.30144 23.0172 4.87402 22.7617C4.64397 22.6242 4.44714 22.5117 4.43658 22.5117C4.42605 22.5117 4.41742 30.0401 4.41742 39.2415V55.9713L3.64593 55.9886C2.95576 56.004 2.84164 56.0144 2.5634 56.0868C2.00783 56.2314 1.46918 56.5257 1.06091 56.9076C0.294418 57.6246 -0.0999473 58.7034 0.0217732 59.7501C0.202382 61.3026 1.40867 62.5183 2.97138 62.7227C3.2907 62.7645 50.496 62.766 50.9355 62.7242C52.6461 62.5618 53.9483 61.1827 53.9992 59.4797C54.0342 58.3059 53.4836 57.2207 52.5234 56.5708C52.1098 56.2909 51.5434 56.0745 51.0886 56.0226C50.9924 56.0116 50.8922 55.9987 50.8659 55.9938C50.8397 55.989 49.8984 55.9839 48.7741 55.9826L46.7301 55.9801V37.9734V19.9666H35.3089H23.8876V37.9734ZM26.9418 39.5004V55.9801H35.3089H43.676V39.5004V23.0208H35.3089H26.9418V39.5004ZM31.2526 26.1196C30.5663 26.2892 30.0575 26.8765 29.9837 27.5844C29.9171 28.2226 30.2842 28.9191 30.8432 29.215C31.2449 29.4277 30.9714 29.4154 35.292 29.4154C38.7063 29.4154 39.2326 29.4092 39.3956 29.3667C40.2105 29.1544 40.7402 28.3594 40.6239 27.5231C40.5286 26.8378 40.0516 26.3007 39.3796 26.1218C39.2322 26.0826 38.6197 26.076 35.3089 26.078C32.3298 26.0798 31.3742 26.0896 31.2526 26.1196ZM6.23082 29.2563V31.0697H8.04422H9.85762V29.2563V27.4429H8.04422H6.23082V29.2563ZM31.3305 32.808C30.9224 32.8768 30.5144 33.1413 30.2708 33.495C29.9277 33.9931 29.8894 34.6819 30.1736 35.2427C30.2939 35.4801 30.6004 35.7854 30.8502 35.9167C31.2697 36.1371 31.06 36.1272 35.2966 36.1277C37.7505 36.128 39.1792 36.1166 39.2892 36.0959C39.5709 36.0428 39.903 35.8653 40.132 35.6454C40.8256 34.9793 40.8041 33.8355 40.0858 33.1968C40.0044 33.1245 39.8161 33.0064 39.6674 32.9344L39.397 32.8036L35.471 32.7877C32.6175 32.7761 31.4865 32.7817 31.3305 32.808ZM6.23082 35.4919V37.3053H8.04422H9.85762V35.4919V33.6785H8.04422H6.23082V35.4919ZM15.0439 35.4206C15.0447 36.379 15.0538 37.1953 15.0641 37.2345L15.0827 37.3058L16.8844 37.2976L18.686 37.2894V35.4919V33.6944L16.8642 33.6862L15.0423 33.678L15.0439 35.4206ZM31.2768 39.5168C30.726 39.6365 30.2297 40.0945 30.0561 40.6435C29.9704 40.9145 29.9635 41.3488 30.0407 41.6161C30.1655 42.048 30.4931 42.4424 30.897 42.647C31.2839 42.843 31.1332 42.8368 35.3884 42.8307L39.2697 42.825L39.4788 42.7539C40.0632 42.5552 40.4807 42.0818 40.6089 41.4729C40.7567 40.77 40.3998 40.0123 39.7631 39.6778C39.3517 39.4616 39.5236 39.4695 35.293 39.4717C32.2054 39.4733 31.4373 39.4819 31.2768 39.5168ZM6.27034 39.9085C6.23878 39.9286 6.23203 40.3142 6.23852 41.7295L6.24673 43.5249L7.94878 43.534C8.88491 43.539 9.69747 43.5348 9.75448 43.5246L9.85813 43.506L9.84993 41.7021L9.84172 39.8981L8.07604 39.8905C7.10491 39.8863 6.29235 39.8944 6.27034 39.9085ZM15.0634 39.9073C15.0547 39.9213 15.0502 40.741 15.0534 41.7289L15.0592 43.5249H16.8726H18.686V41.7115V39.8981L16.8826 39.8899C15.8907 39.8854 15.0721 39.8932 15.0634 39.9073ZM6.24505 46.1585C6.23687 46.1799 6.23391 46.999 6.23846 47.9789L6.24673 49.7605L8.05218 49.7677L9.85762 49.7749V47.9657C9.85762 46.3276 9.85276 46.1545 9.80612 46.1366C9.77777 46.1258 8.9683 46.1175 8.00723 46.1183C6.66385 46.1194 6.25643 46.1287 6.24505 46.1585ZM15.0828 46.144C15.0513 46.1641 15.0445 46.5498 15.051 47.965L15.0592 49.7605H16.8726H18.686V47.9471V46.1337L16.9044 46.1261C15.9246 46.1219 15.1048 46.1299 15.0828 46.144ZM31.2526 46.2261C30.665 46.3713 30.1806 46.8463 30.033 47.4221C29.8431 48.1628 30.1899 48.974 30.8458 49.3235C31.2365 49.5318 31.0129 49.5219 35.3089 49.5219C39.6081 49.5219 39.3807 49.532 39.7749 49.322C40.92 48.712 40.9246 47.0278 39.7829 46.3893C39.3963 46.1732 39.5925 46.1821 35.293 46.1846C32.3262 46.1863 31.3742 46.1961 31.2526 46.2261ZM6.23082 54.1667V55.9801H8.04422H9.85762V54.1667V52.3533H8.04422H6.23082V54.1667ZM15.0657 52.3733C15.0545 52.3846 15.0446 53.2007 15.0438 54.1869L15.0424 55.9801H16.8724H18.7025L18.6942 54.1747L18.686 52.3692L16.8861 52.361C15.8962 52.3565 15.077 52.362 15.0657 52.3733Z" fill="#0033A0"/>
</svg>
