<svg width="64" height="53" viewBox="0 0 64 53" fill="none" xmlns="http://www.w3.org/2000/svg">
<mask id="path-1-inside-1_240_5926" fill="white">
<path fill-rule="evenodd" clip-rule="evenodd" d="M59.9042 0.289422C58.7625 0.678696 57.3695 1.68893 56.6767 2.6301L56.1188 3.38798L55.7713 3.12859C55.3155 2.78809 54.9412 2.89028 54.1759 3.56399C52.9711 4.62446 51.3835 7.20517 51.0966 8.56982C51.0059 9.00084 50.8495 9.11708 50.6956 8.86804C50.6506 8.79514 50.4154 8.7355 50.173 8.7355C49.8262 8.7355 49.6291 8.84988 49.2467 9.27322C48.1337 10.5051 46.836 13.0191 46.3574 14.8703L46.0674 15.9921L45.7052 15.7244C45.394 15.4943 45.2895 15.4788 44.9626 15.6143C44.0352 15.9984 42.9441 19.4584 42.9425 22.02L42.942 22.9117L42.6204 22.7653C42.195 22.5714 41.6649 22.7166 41.4547 23.0847C41.3377 23.2893 41.2795 24.0769 41.2666 25.6262C41.249 27.7576 41.2343 27.8762 40.977 27.9714C40.5764 28.1196 40.4237 28.5071 40.4237 29.3754C40.4237 30.3171 40.7019 31.4384 41.1598 32.3421C41.4978 33.0089 42.4742 34.1835 42.6908 34.1835C42.7528 34.1835 43.5432 32.7073 44.4472 30.9031C47.1415 25.5259 51.023 18.3457 55.1052 11.1875C57.8624 6.35253 57.8643 6.34975 58.1859 6.34975C58.337 6.34975 58.4493 6.43855 58.4493 6.55797C58.4493 6.67262 57.3541 8.68553 56.0156 11.0312C53.0783 16.1788 51.4381 19.1415 48.8109 24.044C46.6307 28.1127 43.4721 34.3369 43.4721 34.5646C43.4721 35.0136 45.8043 35.0361 47.084 34.5995C48.8458 33.9986 50.257 32.5536 50.0573 31.5552C49.9917 31.2269 50.0528 31.1582 50.7289 30.8001C51.9479 30.1543 53.3194 28.9888 53.9218 28.0866C54.5649 27.1235 54.6246 26.6344 54.1449 26.2572L53.8169 25.9992L54.546 25.515C55.5522 24.847 57.1729 23.2807 57.8722 22.3009C58.5734 21.3182 59.5096 19.3672 59.5096 18.8886C59.5096 18.3974 59.0736 18.0134 58.5156 18.0134C57.9357 18.0134 57.9321 17.8807 58.4986 17.3833C59.7204 16.3106 60.7783 14.6055 61.3725 12.7511C61.6295 11.9492 61.6528 11.7402 61.5187 11.4456C61.4307 11.2526 61.2405 11.0639 61.0958 11.0259C60.8675 10.9663 60.9453 10.8379 61.6841 10.0547C62.6238 9.0585 63.237 7.92447 63.5738 6.5593C63.7711 5.75967 63.7707 5.67061 63.5671 5.35993C63.4134 5.1252 63.2286 5.02433 62.9527 5.02433C62.7357 5.02433 62.5581 4.99319 62.5581 4.95528C62.5581 4.91724 62.7079 4.65984 62.8909 4.38323C63.3612 3.67268 63.7707 2.44362 63.8477 1.51198C63.9025 0.850072 63.8721 0.680021 63.6665 0.497909C63.0248 -0.070561 61.2487 -0.169039 59.9042 0.289422ZM5.05113 0.534756C3.36931 0.814153 1.50008 2.17443 0.741808 3.67069C-0.548615 6.21721 -0.139725 8.88116 1.84561 10.8632C3.99941 13.0134 7.05343 13.2985 9.62712 11.5896C11.4631 10.3707 12.531 7.90724 12.1872 5.68479C12.005 4.50835 11.2706 3.0549 10.4367 2.22095C9.63587 1.42013 8.2247 0.703084 7.08127 0.515803C6.18728 0.369344 6.03843 0.370802 5.05113 0.534756ZM10.0054 0.688504C10.9008 1.33796 11.9295 2.54024 12.3858 3.47068C13.6764 6.10203 13.2448 9.12795 11.271 11.2877L10.5992 12.0228L10.6336 31.3746L10.6681 50.7266L11.0766 51.2358C11.3013 51.516 11.8003 51.9358 12.1854 52.1688C13.6152 53.0338 12.9538 53.0051 31.3044 52.9975C46.724 52.991 47.8885 52.9749 47.5809 52.7737C47.3987 52.6546 46.8817 52.1886 46.432 51.7383C43.7862 49.088 43.7153 44.958 46.2664 42.0958L46.9182 41.3644V38.5361L46.9183 35.7077L45.2283 35.6902C44.2989 35.6805 43.3995 35.6507 43.2297 35.6239C42.9518 35.5801 42.8486 35.7333 42.1931 37.1656C41.7927 38.0404 41.3196 39.1108 41.1419 39.5444C40.964 39.9779 40.7447 40.3796 40.6543 40.437C40.5639 40.4944 35.5618 40.5423 29.5383 40.5435C19.9636 40.5452 18.566 40.5204 18.4218 40.3466C18.2904 40.1884 18.2903 40.1074 18.4211 39.9498C18.5641 39.7775 20.0002 39.7473 29.4406 39.7179L40.2956 39.6839L41.2874 37.4564C41.833 36.2314 42.2792 35.1926 42.2792 35.1482C42.2792 35.1038 41.9291 34.7028 41.5011 34.257C40.3296 33.0371 39.7391 31.6978 39.5567 29.8467C39.4512 28.7759 39.6304 27.9903 40.0756 27.572C40.3736 27.2921 40.3891 27.2065 40.3253 26.1847C40.239 24.8022 40.4776 22.9598 40.8 22.5198C40.9334 22.3376 41.2762 22.0653 41.5615 21.9148L42.0804 21.6412L42.1753 20.6033C42.3126 19.0996 42.7299 17.5732 43.3455 16.3218C43.9126 15.1691 44.2564 14.8369 45.0137 14.7103C45.4508 14.6372 45.4894 14.5843 45.8438 13.5733C46.0482 12.9901 46.3736 12.2017 46.5668 11.8215L46.9182 11.13V7.0778C46.9182 3.29347 46.9007 2.99141 46.6543 2.50843C46.1855 1.58952 44.7741 0.777837 43.207 0.525876C42.6399 0.434687 36.7512 0.389623 25.9766 0.393732L9.60777 0.400094L10.0054 0.688504ZM19.8214 13.0965C19.7801 13.1633 19.7828 13.3132 19.8275 13.4296C19.9011 13.6212 20.8274 13.6381 29.6028 13.6072C39.1974 13.5737 39.2971 13.5705 39.2971 13.3082C39.2971 13.0459 39.1974 13.0427 29.5968 13.0092C23.8239 12.9889 19.8661 13.0243 19.8214 13.0965ZM19.8686 19.8162C19.7172 19.9985 19.7285 20.0577 19.9444 20.2156C20.157 20.371 21.7376 20.3954 29.7475 20.3669L39.2971 20.3329V20.0015V19.6702L29.6716 19.6362C20.9474 19.6054 20.0295 19.6222 19.8686 19.8162ZM19.8758 26.5671C19.7664 26.6988 19.7512 26.8181 19.8332 26.9002C19.9135 26.9805 23.5522 27.0154 29.6291 26.994C39.1974 26.9603 39.2971 26.9572 39.2971 26.6949C39.2971 26.4326 39.1974 26.4294 29.6716 26.3959C21.1152 26.3655 20.0273 26.3846 19.8758 26.5671ZM19.8214 33.2428C19.7801 33.3096 19.7828 33.4595 19.8275 33.5759C19.9011 33.7675 20.8274 33.7844 29.6028 33.7535C39.1974 33.72 39.2971 33.7168 39.2971 33.4545C39.2971 33.1922 39.1974 33.189 29.5968 33.1555C23.8239 33.1352 19.8661 33.1706 19.8214 33.2428ZM50.3643 40.825C48.5599 41.1188 46.7487 42.4886 45.9162 44.1891C44.0117 48.0796 46.634 52.6384 50.9657 52.9675C52.7798 53.1053 54.2933 52.5218 55.676 51.1512C56.9114 49.9266 57.5107 48.559 57.5183 46.9471C57.5362 43.1311 54.1258 40.2126 50.3643 40.825Z"/>
</mask>
<path fill-rule="evenodd" clip-rule="evenodd" d="M59.9042 0.289422C58.7625 0.678696 57.3695 1.68893 56.6767 2.6301L56.1188 3.38798L55.7713 3.12859C55.3155 2.78809 54.9412 2.89028 54.1759 3.56399C52.9711 4.62446 51.3835 7.20517 51.0966 8.56982C51.0059 9.00084 50.8495 9.11708 50.6956 8.86804C50.6506 8.79514 50.4154 8.7355 50.173 8.7355C49.8262 8.7355 49.6291 8.84988 49.2467 9.27322C48.1337 10.5051 46.836 13.0191 46.3574 14.8703L46.0674 15.9921L45.7052 15.7244C45.394 15.4943 45.2895 15.4788 44.9626 15.6143C44.0352 15.9984 42.9441 19.4584 42.9425 22.02L42.942 22.9117L42.6204 22.7653C42.195 22.5714 41.6649 22.7166 41.4547 23.0847C41.3377 23.2893 41.2795 24.0769 41.2666 25.6262C41.249 27.7576 41.2343 27.8762 40.977 27.9714C40.5764 28.1196 40.4237 28.5071 40.4237 29.3754C40.4237 30.3171 40.7019 31.4384 41.1598 32.3421C41.4978 33.0089 42.4742 34.1835 42.6908 34.1835C42.7528 34.1835 43.5432 32.7073 44.4472 30.9031C47.1415 25.5259 51.023 18.3457 55.1052 11.1875C57.8624 6.35253 57.8643 6.34975 58.1859 6.34975C58.337 6.34975 58.4493 6.43855 58.4493 6.55797C58.4493 6.67262 57.3541 8.68553 56.0156 11.0312C53.0783 16.1788 51.4381 19.1415 48.8109 24.044C46.6307 28.1127 43.4721 34.3369 43.4721 34.5646C43.4721 35.0136 45.8043 35.0361 47.084 34.5995C48.8458 33.9986 50.257 32.5536 50.0573 31.5552C49.9917 31.2269 50.0528 31.1582 50.7289 30.8001C51.9479 30.1543 53.3194 28.9888 53.9218 28.0866C54.5649 27.1235 54.6246 26.6344 54.1449 26.2572L53.8169 25.9992L54.546 25.515C55.5522 24.847 57.1729 23.2807 57.8722 22.3009C58.5734 21.3182 59.5096 19.3672 59.5096 18.8886C59.5096 18.3974 59.0736 18.0134 58.5156 18.0134C57.9357 18.0134 57.9321 17.8807 58.4986 17.3833C59.7204 16.3106 60.7783 14.6055 61.3725 12.7511C61.6295 11.9492 61.6528 11.7402 61.5187 11.4456C61.4307 11.2526 61.2405 11.0639 61.0958 11.0259C60.8675 10.9663 60.9453 10.8379 61.6841 10.0547C62.6238 9.0585 63.237 7.92447 63.5738 6.5593C63.7711 5.75967 63.7707 5.67061 63.5671 5.35993C63.4134 5.1252 63.2286 5.02433 62.9527 5.02433C62.7357 5.02433 62.5581 4.99319 62.5581 4.95528C62.5581 4.91724 62.7079 4.65984 62.8909 4.38323C63.3612 3.67268 63.7707 2.44362 63.8477 1.51198C63.9025 0.850072 63.8721 0.680021 63.6665 0.497909C63.0248 -0.070561 61.2487 -0.169039 59.9042 0.289422ZM5.05113 0.534756C3.36931 0.814153 1.50008 2.17443 0.741808 3.67069C-0.548615 6.21721 -0.139725 8.88116 1.84561 10.8632C3.99941 13.0134 7.05343 13.2985 9.62712 11.5896C11.4631 10.3707 12.531 7.90724 12.1872 5.68479C12.005 4.50835 11.2706 3.0549 10.4367 2.22095C9.63587 1.42013 8.2247 0.703084 7.08127 0.515803C6.18728 0.369344 6.03843 0.370802 5.05113 0.534756ZM10.0054 0.688504C10.9008 1.33796 11.9295 2.54024 12.3858 3.47068C13.6764 6.10203 13.2448 9.12795 11.271 11.2877L10.5992 12.0228L10.6336 31.3746L10.6681 50.7266L11.0766 51.2358C11.3013 51.516 11.8003 51.9358 12.1854 52.1688C13.6152 53.0338 12.9538 53.0051 31.3044 52.9975C46.724 52.991 47.8885 52.9749 47.5809 52.7737C47.3987 52.6546 46.8817 52.1886 46.432 51.7383C43.7862 49.088 43.7153 44.958 46.2664 42.0958L46.9182 41.3644V38.5361L46.9183 35.7077L45.2283 35.6902C44.2989 35.6805 43.3995 35.6507 43.2297 35.6239C42.9518 35.5801 42.8486 35.7333 42.1931 37.1656C41.7927 38.0404 41.3196 39.1108 41.1419 39.5444C40.964 39.9779 40.7447 40.3796 40.6543 40.437C40.5639 40.4944 35.5618 40.5423 29.5383 40.5435C19.9636 40.5452 18.566 40.5204 18.4218 40.3466C18.2904 40.1884 18.2903 40.1074 18.4211 39.9498C18.5641 39.7775 20.0002 39.7473 29.4406 39.7179L40.2956 39.6839L41.2874 37.4564C41.833 36.2314 42.2792 35.1926 42.2792 35.1482C42.2792 35.1038 41.9291 34.7028 41.5011 34.257C40.3296 33.0371 39.7391 31.6978 39.5567 29.8467C39.4512 28.7759 39.6304 27.9903 40.0756 27.572C40.3736 27.2921 40.3891 27.2065 40.3253 26.1847C40.239 24.8022 40.4776 22.9598 40.8 22.5198C40.9334 22.3376 41.2762 22.0653 41.5615 21.9148L42.0804 21.6412L42.1753 20.6033C42.3126 19.0996 42.7299 17.5732 43.3455 16.3218C43.9126 15.1691 44.2564 14.8369 45.0137 14.7103C45.4508 14.6372 45.4894 14.5843 45.8438 13.5733C46.0482 12.9901 46.3736 12.2017 46.5668 11.8215L46.9182 11.13V7.0778C46.9182 3.29347 46.9007 2.99141 46.6543 2.50843C46.1855 1.58952 44.7741 0.777837 43.207 0.525876C42.6399 0.434687 36.7512 0.389623 25.9766 0.393732L9.60777 0.400094L10.0054 0.688504ZM19.8214 13.0965C19.7801 13.1633 19.7828 13.3132 19.8275 13.4296C19.9011 13.6212 20.8274 13.6381 29.6028 13.6072C39.1974 13.5737 39.2971 13.5705 39.2971 13.3082C39.2971 13.0459 39.1974 13.0427 29.5968 13.0092C23.8239 12.9889 19.8661 13.0243 19.8214 13.0965ZM19.8686 19.8162C19.7172 19.9985 19.7285 20.0577 19.9444 20.2156C20.157 20.371 21.7376 20.3954 29.7475 20.3669L39.2971 20.3329V20.0015V19.6702L29.6716 19.6362C20.9474 19.6054 20.0295 19.6222 19.8686 19.8162ZM19.8758 26.5671C19.7664 26.6988 19.7512 26.8181 19.8332 26.9002C19.9135 26.9805 23.5522 27.0154 29.6291 26.994C39.1974 26.9603 39.2971 26.9572 39.2971 26.6949C39.2971 26.4326 39.1974 26.4294 29.6716 26.3959C21.1152 26.3655 20.0273 26.3846 19.8758 26.5671ZM19.8214 33.2428C19.7801 33.3096 19.7828 33.4595 19.8275 33.5759C19.9011 33.7675 20.8274 33.7844 29.6028 33.7535C39.1974 33.72 39.2971 33.7168 39.2971 33.4545C39.2971 33.1922 39.1974 33.189 29.5968 33.1555C23.8239 33.1352 19.8661 33.1706 19.8214 33.2428ZM50.3643 40.825C48.5599 41.1188 46.7487 42.4886 45.9162 44.1891C44.0117 48.0796 46.634 52.6384 50.9657 52.9675C52.7798 53.1053 54.2933 52.5218 55.676 51.1512C56.9114 49.9266 57.5107 48.559 57.5183 46.9471C57.5362 43.1311 54.1258 40.2126 50.3643 40.825Z" fill="#0033A0" stroke="white" stroke-width="2" mask="url(#path-1-inside-1_240_5926)"/>
</svg>
