<svg width="64" height="64" viewBox="0 0 64 64" fill="none" xmlns="http://www.w3.org/2000/svg">
<path fill-rule="evenodd" clip-rule="evenodd" d="M24.1685 0.528561C22.7408 0.718258 21.5582 1.4433 20.793 2.59802C20.4613 3.09862 20.2449 3.62145 20.0924 4.29058L20.0197 4.60988L20.01 15.1788L20.0003 25.7477L20.2963 25.9196C20.5704 26.0787 21.3304 26.5252 22.564 27.2519L23.0669 27.5481L23.0694 16.6218C23.0707 10.6123 23.0788 5.63085 23.0872 5.55182C23.1812 4.6693 23.7395 3.98682 24.6326 3.66299L24.8391 3.58811L31.3766 3.57968C38.7191 3.5702 38.1447 3.55162 38.6808 3.81616C39.2128 4.07872 39.5959 4.53491 39.8032 5.15269L39.8782 5.3762L39.8868 11.411L39.8954 17.4458L41.3716 17.4382C42.1835 17.4339 42.873 17.4304 42.9038 17.4302C42.9572 17.4299 42.9598 17.1209 42.9576 11.1636C42.9556 5.99019 42.9474 4.84156 42.9107 4.57795C42.6317 2.57548 41.2265 1.05528 39.23 0.59587L38.9203 0.524634L31.5923 0.520227C27.5619 0.517801 24.2212 0.521536 24.1685 0.528561ZM31.3049 6.63745C27.6745 6.65226 27.3834 6.65744 27.2536 6.70935C26.9877 6.81565 26.7765 6.95854 26.5904 7.15794C25.9629 7.83033 25.981 8.85382 26.6317 9.49766C26.8586 9.72219 27.1975 9.90375 27.4872 9.95595C27.7514 10.0036 35.2111 10.0034 35.4739 9.95576C36.2374 9.81738 36.8289 9.10533 36.8289 8.32461C36.8289 7.85459 36.6871 7.49353 36.3709 7.15836C36.0834 6.85358 35.72 6.67024 35.3281 6.63231C35.2667 6.62637 33.4562 6.62867 31.3049 6.63745ZM27.4188 13.3914C26.8986 13.5327 26.5137 13.8485 26.2943 14.314C25.8535 15.2495 26.3284 16.3054 27.3456 16.6517C27.5135 16.7088 27.6947 16.7114 31.4646 16.7114C35.799 16.7114 35.5314 16.7234 35.9438 16.5108C36.4819 16.2333 36.8289 15.6545 36.8289 15.0345C36.8289 14.3085 36.4115 13.7127 35.7118 13.4399L35.5038 13.3588L31.5444 13.3525C28.2172 13.3473 27.5585 13.3535 27.4188 13.3914ZM28.8782 38.6315V56.704H27.3137H25.7491V44.7188V32.7336L24.847 32.2057C23.8718 31.635 23.5133 31.4245 21.1352 30.0266C20.2746 29.5208 19.2401 28.9131 18.8362 28.6762C17.8794 28.1151 17.1618 27.6936 16.5691 27.3445C16.3057 27.1893 15.9752 26.9952 15.8347 26.9131C15.6943 26.831 15.3638 26.637 15.1004 26.4818C14.8369 26.3267 14.4993 26.1282 14.35 26.0409C13.991 25.8309 13.7151 25.6689 12.8173 25.1413C12.4046 24.8986 11.988 24.6546 11.8914 24.5989C11.5749 24.4162 10.2242 23.6208 9.79522 23.3643C9.56433 23.2263 9.36678 23.1134 9.35618 23.1134C9.34561 23.1134 9.33695 30.6693 9.33695 39.9043V56.6951L8.56265 56.7125C7.86995 56.728 7.75542 56.7384 7.47616 56.8111C6.91856 56.9562 6.37795 57.2515 5.96819 57.6349C5.1989 58.3545 4.80309 59.4373 4.92525 60.4877C5.10652 62.0459 6.31722 63.2661 7.88563 63.4712C8.20611 63.5131 55.5838 63.5146 56.0249 63.4728C57.7417 63.3098 59.0487 61.9255 59.0997 60.2163C59.1348 59.0383 58.5823 57.9491 57.6185 57.2969C57.2035 57.016 56.635 56.7987 56.1786 56.7466C56.082 56.7356 55.9814 56.7226 55.955 56.7177C55.9287 56.7129 54.984 56.7078 53.8556 56.7065L51.8041 56.704V38.6315V20.559H40.3412H28.8782V38.6315ZM31.9435 40.1642V56.704H40.3412H48.7388V40.1642V23.6243H40.3412H31.9435V40.1642ZM36.2701 26.7345C35.5813 26.9046 35.0706 27.4941 34.9965 28.2046C34.9297 28.8451 35.2982 29.5442 35.8592 29.8412C36.2624 30.0546 35.9879 30.0423 40.3243 30.0423C43.751 30.0423 44.2793 30.036 44.4429 29.9934C45.2608 29.7804 45.7924 28.9824 45.6756 28.1431C45.58 27.4553 45.1013 26.9162 44.4268 26.7367C44.2788 26.6973 43.6641 26.6907 40.3412 26.6927C37.3512 26.6945 36.3921 26.7043 36.2701 26.7345ZM11.157 29.8826V31.7027H12.977H14.797V29.8826V28.0626H12.977H11.157V29.8826ZM36.3483 33.4473C35.9387 33.5163 35.5292 33.7818 35.2847 34.1368C34.9404 34.6367 34.9019 35.328 35.1871 35.8908C35.3079 36.1291 35.6155 36.4356 35.8662 36.5673C36.2872 36.7886 36.0768 36.7786 40.3289 36.7791C42.7918 36.7794 44.2256 36.768 44.3361 36.7471C44.6188 36.6939 44.9521 36.5157 45.1819 36.295C45.8781 35.6265 45.8565 34.4785 45.1356 33.8375C45.0539 33.7649 44.8649 33.6464 44.7156 33.5742L44.4442 33.4428L40.504 33.4269C37.64 33.4153 36.5048 33.4208 36.3483 33.4473ZM11.157 36.1409V37.961H12.977H14.797V36.1409V34.3209H12.977H11.157V36.1409ZM20.0022 36.0694C20.003 37.0314 20.0121 37.8506 20.0225 37.89L20.0412 37.9615L21.8494 37.9532L23.6576 37.945V36.1409V34.3369L21.8291 34.3287L20.0006 34.3204L20.0022 36.0694ZM36.2944 40.1806C35.7416 40.3007 35.2435 40.7604 35.0692 41.3113C34.9832 41.5834 34.9763 42.0193 35.0538 42.2875C35.1791 42.7211 35.5078 43.1168 35.9132 43.3222C36.3016 43.5189 36.1503 43.5127 40.421 43.5065L44.3165 43.5009L44.5263 43.4295C45.1128 43.23 45.5319 42.7549 45.6605 42.1438C45.8089 41.4384 45.4507 40.6779 44.8117 40.3421C44.3988 40.1252 44.5713 40.1331 40.3252 40.1353C37.2264 40.1369 36.4555 40.1456 36.2944 40.1806ZM11.1966 40.5737C11.165 40.5939 11.1582 40.9809 11.1647 42.4013L11.1729 44.2033L12.8812 44.2125C13.8208 44.2175 14.6363 44.2132 14.6935 44.203L14.7975 44.1844L14.7893 42.3738L14.7811 40.5633L13.0089 40.5556C12.0343 40.5514 11.2187 40.5595 11.1966 40.5737ZM20.0218 40.5724C20.0131 40.5866 20.0086 41.4093 20.0118 42.4007L20.0176 44.2033H21.8376H23.6576V42.3833V40.5633L21.8477 40.555C20.8522 40.5505 20.0305 40.5583 20.0218 40.5724ZM11.1712 46.8465C11.163 46.868 11.1601 47.6901 11.1646 48.6736L11.1729 50.4616L12.985 50.4689L14.797 50.4761V48.6603C14.797 47.0162 14.7921 46.8425 14.7453 46.8246C14.7169 46.8137 13.9044 46.8054 12.9399 46.8062C11.5916 46.8073 11.1827 46.8167 11.1712 46.8465ZM20.0413 46.832C20.0096 46.8522 20.0029 47.2392 20.0094 48.6596L20.0176 50.4616H21.8376H23.6576V48.6416V46.8216L21.8696 46.814C20.8861 46.8098 20.0634 46.8179 20.0413 46.832ZM36.2701 46.9144C35.6803 47.0601 35.1942 47.5368 35.046 48.1148C34.8555 48.8581 35.2035 49.6723 35.8618 50.0231C36.2539 50.2321 36.0295 50.2222 40.3412 50.2222C44.6561 50.2222 44.4279 50.2324 44.8235 50.0216C45.9728 49.4093 45.9774 47.719 44.8316 47.0782C44.4436 46.8612 44.6405 46.8702 40.3252 46.8727C37.3476 46.8744 36.3921 46.8842 36.2701 46.9144ZM11.157 54.884V56.704H12.977H14.797V54.884V53.064H12.977H11.157V54.884ZM20.0241 53.084C20.0128 53.0953 20.0029 53.9144 20.0022 54.9043L20.0007 56.704H21.8374H23.6742L23.6659 54.892L23.6576 53.0799L21.8512 53.0717C20.8577 53.0671 20.0355 53.0727 20.0241 53.084Z" fill="#0033A0"/>
</svg>
