<svg width="64" height="64" viewBox="0 0 64 64" fill="none" xmlns="http://www.w3.org/2000/svg">
<path d="M58.0752 23.4851L40.5267 5.93656C40.147 5.55684 39.6963 5.25562 39.2002 5.05012C38.7042 4.84461 38.1725 4.73883 37.6355 4.73883C37.0986 4.73883 36.5669 4.84461 36.0708 5.05012C35.5748 5.25562 35.1241 5.55684 34.7444 5.93656L27.4777 13.2033L12.658 18.7632C11.9846 19.0138 11.3891 19.4374 10.9316 19.9914C10.474 20.5454 10.1706 21.2102 10.0518 21.9188L4.74481 53.7556C4.70923 53.969 4.74233 54.1883 4.83935 54.3817C4.93636 54.5752 5.09228 54.7329 5.28464 54.832C5.477 54.9312 5.69587 54.9667 5.90972 54.9335C6.12358 54.9003 6.32137 54.8001 6.47462 54.6473L21.0388 40.0831C20.5773 39.1231 20.3756 38.0589 20.4537 36.9966C20.5487 35.6897 21.0598 34.4476 21.9121 33.4523C22.7645 32.4571 23.9132 31.761 25.19 31.4662C26.4667 31.1713 27.8043 31.2932 29.0068 31.8139C30.2092 32.3347 31.2132 33.2269 31.8717 34.3598C32.5301 35.4927 32.8083 36.8067 32.6656 38.1092C32.5228 39.4118 31.9666 40.6344 31.0784 41.5978C30.1902 42.5612 29.0168 43.2147 27.7301 43.4627C26.4435 43.7106 25.1112 43.5399 23.9286 42.9755L9.36446 57.5397C9.21164 57.6929 9.11142 57.8907 9.07822 58.1046C9.04503 58.3184 9.08057 58.5373 9.17973 58.7297C9.2789 58.922 9.43656 59.078 9.63001 59.175C9.82347 59.272 10.0427 59.3051 10.2562 59.2695L42.0955 53.9625C42.803 53.8447 43.467 53.5427 44.0209 53.0871C44.5748 52.6314 44.999 52.038 45.2511 51.3665L50.8136 36.529L58.0752 29.2699C58.4549 28.8903 58.7561 28.4395 58.9616 27.9435C59.1672 27.4474 59.2729 26.9157 59.2729 26.3788C59.2729 25.8418 59.1672 25.3101 58.9616 24.8141C58.7561 24.318 58.4549 23.8673 58.0752 23.4877V23.4851ZM49.0531 32.5098L31.5045 14.9612L37.6368 8.82896L55.1854 26.3775L49.0531 32.5098Z" fill="#0033A0"/>
</svg>
