<svg width="64" height="64" viewBox="0 0 64 64" fill="none" xmlns="http://www.w3.org/2000/svg">
<g clip-path="url(#clip0_247_7260)">
<mask id="path-1-inside-1_247_7260" fill="white">
<path fill-rule="evenodd" clip-rule="evenodd" d="M60.0242 5.75005C58.8803 6.14008 57.4846 7.15226 56.7905 8.09526L56.2315 8.85461L55.8833 8.59472C55.4266 8.25356 55.0516 8.35595 54.2848 9.03096C53.0777 10.0935 51.487 12.6792 51.1995 14.0465C51.1087 14.4783 50.952 14.5948 50.7978 14.3453C50.7527 14.2722 50.5171 14.2125 50.2742 14.2125C49.9266 14.2125 49.7292 14.3271 49.3461 14.7512C48.2309 15.9855 46.9307 18.5044 46.4512 20.3592L46.1606 21.4832L45.7977 21.2149C45.4859 20.9844 45.3812 20.9689 45.0536 21.1046C44.1244 21.4894 43.0312 24.9561 43.0296 27.5227L43.0291 28.4162L42.7069 28.2694C42.2807 28.0752 41.7496 28.2207 41.539 28.5895C41.4217 28.7945 41.3634 29.5836 41.3505 31.1359C41.3329 33.2714 41.3181 33.3903 41.0604 33.4856C40.6589 33.6341 40.5059 34.0224 40.5059 34.8924C40.5059 35.8359 40.7847 36.9594 41.2435 37.8648C41.5821 38.5329 42.5605 39.7097 42.7775 39.7097C42.8396 39.7097 43.6315 38.2308 44.5373 36.423C47.2368 31.0354 51.1258 23.8413 55.2159 16.6693C57.9785 11.8249 57.9803 11.8221 58.3026 11.8221C58.454 11.8221 58.5665 11.9111 58.5665 12.0307C58.5665 12.1456 57.4692 14.1624 56.1281 16.5127C53.1851 21.6702 51.5417 24.6386 48.9094 29.5507C46.725 33.6272 43.5603 39.8635 43.5603 40.0917C43.5603 40.5415 45.897 40.564 47.1792 40.1266C48.9443 39.5245 50.3584 38.0767 50.1582 37.0764C50.0925 36.7474 50.1537 36.6786 50.8311 36.3198C52.0525 35.6728 53.4267 34.505 54.0302 33.601C54.6746 32.6361 54.7343 32.1461 54.2537 31.7681L53.9251 31.5096L54.6556 31.0245C55.6638 30.3552 57.2877 28.7859 57.9883 27.8041C58.6908 26.8196 59.6289 24.8648 59.6289 24.3852C59.6289 23.8931 59.192 23.5084 58.6329 23.5084C58.0519 23.5084 58.0483 23.3754 58.6159 22.877C59.84 21.8023 60.9 20.0939 61.4954 18.2359C61.7529 17.4324 61.7762 17.223 61.6418 16.9278C61.5537 16.7345 61.3631 16.5453 61.2181 16.5074C60.9894 16.4476 61.0674 16.3189 61.8076 15.5342C62.7491 14.5361 63.3634 13.3999 63.7009 12.0321C63.8986 11.2309 63.8982 11.1417 63.6942 10.8304C63.5402 10.5952 63.3551 10.4941 63.0786 10.4941C62.8612 10.4941 62.6832 10.4629 62.6832 10.4249C62.6832 10.3868 62.8333 10.1289 63.0167 9.85179C63.4879 9.13986 63.8982 7.90842 63.9754 6.97498C64.0302 6.31178 63.9998 6.1414 63.7938 5.95894C63.1508 5.38937 61.3713 5.2907 60.0242 5.75005ZM5.06488 5.99586C3.3798 6.2758 1.50695 7.6387 0.747211 9.13786C-0.545713 11.6893 -0.13603 14.3584 1.85315 16.3443C4.01113 18.4987 7.07106 18.7843 9.64974 17.0722C11.4893 15.8508 12.5592 13.3826 12.2147 11.1559C12.0323 9.97715 11.2964 8.52088 10.4609 7.68532C9.6585 6.88295 8.2446 6.16451 7.09895 5.97687C6.20323 5.83013 6.05409 5.83159 5.06488 5.99586ZM10.0287 6.1499C10.9259 6.80061 11.9566 8.00523 12.4138 8.93747C13.7069 11.5739 13.2745 14.6057 11.2968 16.7696L10.6237 17.5061L10.6582 36.8955L10.6927 56.285L11.102 56.7952C11.3271 57.0759 11.8271 57.4965 12.213 57.7299C13.6455 58.5966 12.9828 58.5679 31.369 58.5602C46.8185 58.5537 47.9853 58.5376 47.677 58.336C47.4944 58.2166 46.9765 57.7497 46.526 57.2986C43.875 54.6432 43.804 50.5052 46.36 47.6374L47.0131 46.9046V44.0708L47.0132 41.2369L45.3199 41.2194C44.3887 41.2097 43.4875 41.1798 43.3174 41.153C43.0389 41.109 42.9356 41.2626 42.2788 42.6977C41.8776 43.5742 41.4037 44.6466 41.2256 45.081C41.0474 45.5154 40.8276 45.9179 40.737 45.9754C40.6464 46.0329 35.6346 46.0809 29.5995 46.0821C20.0063 46.0838 18.6059 46.059 18.4614 45.8849C18.3298 45.7263 18.3297 45.6452 18.4608 45.4873C18.6041 45.3146 20.0429 45.2844 29.5016 45.2549L40.3777 45.2209L41.3714 42.9891C41.918 41.7616 42.3651 40.7209 42.3651 40.6764C42.3651 40.6319 42.0143 40.23 41.5855 39.7834C40.4117 38.5612 39.82 37.2192 39.6373 35.3646C39.5316 34.2917 39.7111 33.5046 40.1572 33.0855C40.4557 32.805 40.4713 32.7192 40.4074 31.6955C40.321 30.3103 40.56 28.4644 40.883 28.0235C41.0167 27.8409 41.3601 27.5681 41.646 27.4173L42.1659 27.1432L42.261 26.1032C42.3986 24.5966 42.8166 23.0673 43.4335 21.8135C44.0016 20.6585 44.3461 20.3257 45.1049 20.1989C45.5428 20.1256 45.5815 20.0726 45.9366 19.0596C46.1414 18.4753 46.4674 17.6854 46.661 17.3044L47.0131 16.6116V12.5516C47.0131 8.75992 46.9955 8.45727 46.7487 7.97336C46.2789 7.05267 44.8648 6.23941 43.2947 5.98696C42.7265 5.89559 36.8264 5.85044 26.0309 5.85456L9.63035 5.86093L10.0287 6.1499ZM19.8638 18.5819C19.8223 18.6489 19.8251 18.7991 19.8699 18.9157C19.9436 19.1077 20.8717 19.1246 29.6642 19.0936C39.2773 19.06 39.3772 19.0568 39.3772 18.794C39.3772 18.5312 39.2773 18.528 29.6581 18.4944C23.874 18.4741 19.9085 18.5096 19.8638 18.5819ZM19.9111 25.3147C19.7594 25.4973 19.7707 25.5566 19.987 25.7148C20.2 25.8706 21.7836 25.895 29.809 25.8665L39.3772 25.8323V25.5003V25.1683L29.7331 25.1343C20.9919 25.1034 20.0723 25.1203 19.9111 25.3147ZM19.9182 32.0786C19.8087 32.2106 19.7934 32.3301 19.8756 32.4123C19.9561 32.4928 23.6018 32.5278 29.6905 32.5064C39.2773 32.4726 39.3772 32.4695 39.3772 32.2066C39.3772 31.9438 39.2773 31.9407 29.7331 31.9071C21.16 31.8766 20.07 31.8958 19.9182 32.0786ZM19.8638 38.7673C19.8223 38.8342 19.8251 38.9844 19.8699 39.101C19.9436 39.293 20.8717 39.3099 29.6642 39.2789C39.2773 39.2453 39.3772 39.2422 39.3772 38.9794C39.3772 38.7165 39.2773 38.7134 29.6581 38.6798C23.874 38.6594 19.9085 38.6949 19.8638 38.7673ZM50.4658 46.3641C48.6579 46.6585 46.8432 48.031 46.0091 49.7348C44.1009 53.6328 46.7283 58.2004 51.0684 58.5302C52.8861 58.6683 54.4025 58.0836 55.7878 56.7103C57.0256 55.4834 57.626 54.1132 57.6337 52.4981C57.6517 48.6747 54.2346 45.7506 50.4658 46.3641Z"/>
</mask>
<path fill-rule="evenodd" clip-rule="evenodd" d="M60.0242 5.75005C58.8803 6.14008 57.4846 7.15226 56.7905 8.09526L56.2315 8.85461L55.8833 8.59472C55.4266 8.25356 55.0516 8.35595 54.2848 9.03096C53.0777 10.0935 51.487 12.6792 51.1995 14.0465C51.1087 14.4783 50.952 14.5948 50.7978 14.3453C50.7527 14.2722 50.5171 14.2125 50.2742 14.2125C49.9266 14.2125 49.7292 14.3271 49.3461 14.7512C48.2309 15.9855 46.9307 18.5044 46.4512 20.3592L46.1606 21.4832L45.7977 21.2149C45.4859 20.9844 45.3812 20.9689 45.0536 21.1046C44.1244 21.4894 43.0312 24.9561 43.0296 27.5227L43.0291 28.4162L42.7069 28.2694C42.2807 28.0752 41.7496 28.2207 41.539 28.5895C41.4217 28.7945 41.3634 29.5836 41.3505 31.1359C41.3329 33.2714 41.3181 33.3903 41.0604 33.4856C40.6589 33.6341 40.5059 34.0224 40.5059 34.8924C40.5059 35.8359 40.7847 36.9594 41.2435 37.8648C41.5821 38.5329 42.5605 39.7097 42.7775 39.7097C42.8396 39.7097 43.6315 38.2308 44.5373 36.423C47.2368 31.0354 51.1258 23.8413 55.2159 16.6693C57.9785 11.8249 57.9803 11.8221 58.3026 11.8221C58.454 11.8221 58.5665 11.9111 58.5665 12.0307C58.5665 12.1456 57.4692 14.1624 56.1281 16.5127C53.1851 21.6702 51.5417 24.6386 48.9094 29.5507C46.725 33.6272 43.5603 39.8635 43.5603 40.0917C43.5603 40.5415 45.897 40.564 47.1792 40.1266C48.9443 39.5245 50.3584 38.0767 50.1582 37.0764C50.0925 36.7474 50.1537 36.6786 50.8311 36.3198C52.0525 35.6728 53.4267 34.505 54.0302 33.601C54.6746 32.6361 54.7343 32.1461 54.2537 31.7681L53.9251 31.5096L54.6556 31.0245C55.6638 30.3552 57.2877 28.7859 57.9883 27.8041C58.6908 26.8196 59.6289 24.8648 59.6289 24.3852C59.6289 23.8931 59.192 23.5084 58.6329 23.5084C58.0519 23.5084 58.0483 23.3754 58.6159 22.877C59.84 21.8023 60.9 20.0939 61.4954 18.2359C61.7529 17.4324 61.7762 17.223 61.6418 16.9278C61.5537 16.7345 61.3631 16.5453 61.2181 16.5074C60.9894 16.4476 61.0674 16.3189 61.8076 15.5342C62.7491 14.5361 63.3634 13.3999 63.7009 12.0321C63.8986 11.2309 63.8982 11.1417 63.6942 10.8304C63.5402 10.5952 63.3551 10.4941 63.0786 10.4941C62.8612 10.4941 62.6832 10.4629 62.6832 10.4249C62.6832 10.3868 62.8333 10.1289 63.0167 9.85179C63.4879 9.13986 63.8982 7.90842 63.9754 6.97498C64.0302 6.31178 63.9998 6.1414 63.7938 5.95894C63.1508 5.38937 61.3713 5.2907 60.0242 5.75005ZM5.06488 5.99586C3.3798 6.2758 1.50695 7.6387 0.747211 9.13786C-0.545713 11.6893 -0.13603 14.3584 1.85315 16.3443C4.01113 18.4987 7.07106 18.7843 9.64974 17.0722C11.4893 15.8508 12.5592 13.3826 12.2147 11.1559C12.0323 9.97715 11.2964 8.52088 10.4609 7.68532C9.6585 6.88295 8.2446 6.16451 7.09895 5.97687C6.20323 5.83013 6.05409 5.83159 5.06488 5.99586ZM10.0287 6.1499C10.9259 6.80061 11.9566 8.00523 12.4138 8.93747C13.7069 11.5739 13.2745 14.6057 11.2968 16.7696L10.6237 17.5061L10.6582 36.8955L10.6927 56.285L11.102 56.7952C11.3271 57.0759 11.8271 57.4965 12.213 57.7299C13.6455 58.5966 12.9828 58.5679 31.369 58.5602C46.8185 58.5537 47.9853 58.5376 47.677 58.336C47.4944 58.2166 46.9765 57.7497 46.526 57.2986C43.875 54.6432 43.804 50.5052 46.36 47.6374L47.0131 46.9046V44.0708L47.0132 41.2369L45.3199 41.2194C44.3887 41.2097 43.4875 41.1798 43.3174 41.153C43.0389 41.109 42.9356 41.2626 42.2788 42.6977C41.8776 43.5742 41.4037 44.6466 41.2256 45.081C41.0474 45.5154 40.8276 45.9179 40.737 45.9754C40.6464 46.0329 35.6346 46.0809 29.5995 46.0821C20.0063 46.0838 18.6059 46.059 18.4614 45.8849C18.3298 45.7263 18.3297 45.6452 18.4608 45.4873C18.6041 45.3146 20.0429 45.2844 29.5016 45.2549L40.3777 45.2209L41.3714 42.9891C41.918 41.7616 42.3651 40.7209 42.3651 40.6764C42.3651 40.6319 42.0143 40.23 41.5855 39.7834C40.4117 38.5612 39.82 37.2192 39.6373 35.3646C39.5316 34.2917 39.7111 33.5046 40.1572 33.0855C40.4557 32.805 40.4713 32.7192 40.4074 31.6955C40.321 30.3103 40.56 28.4644 40.883 28.0235C41.0167 27.8409 41.3601 27.5681 41.646 27.4173L42.1659 27.1432L42.261 26.1032C42.3986 24.5966 42.8166 23.0673 43.4335 21.8135C44.0016 20.6585 44.3461 20.3257 45.1049 20.1989C45.5428 20.1256 45.5815 20.0726 45.9366 19.0596C46.1414 18.4753 46.4674 17.6854 46.661 17.3044L47.0131 16.6116V12.5516C47.0131 8.75992 46.9955 8.45727 46.7487 7.97336C46.2789 7.05267 44.8648 6.23941 43.2947 5.98696C42.7265 5.89559 36.8264 5.85044 26.0309 5.85456L9.63035 5.86093L10.0287 6.1499ZM19.8638 18.5819C19.8223 18.6489 19.8251 18.7991 19.8699 18.9157C19.9436 19.1077 20.8717 19.1246 29.6642 19.0936C39.2773 19.06 39.3772 19.0568 39.3772 18.794C39.3772 18.5312 39.2773 18.528 29.6581 18.4944C23.874 18.4741 19.9085 18.5096 19.8638 18.5819ZM19.9111 25.3147C19.7594 25.4973 19.7707 25.5566 19.987 25.7148C20.2 25.8706 21.7836 25.895 29.809 25.8665L39.3772 25.8323V25.5003V25.1683L29.7331 25.1343C20.9919 25.1034 20.0723 25.1203 19.9111 25.3147ZM19.9182 32.0786C19.8087 32.2106 19.7934 32.3301 19.8756 32.4123C19.9561 32.4928 23.6018 32.5278 29.6905 32.5064C39.2773 32.4726 39.3772 32.4695 39.3772 32.2066C39.3772 31.9438 39.2773 31.9407 29.7331 31.9071C21.16 31.8766 20.07 31.8958 19.9182 32.0786ZM19.8638 38.7673C19.8223 38.8342 19.8251 38.9844 19.8699 39.101C19.9436 39.293 20.8717 39.3099 29.6642 39.2789C39.2773 39.2453 39.3772 39.2422 39.3772 38.9794C39.3772 38.7165 39.2773 38.7134 29.6581 38.6798C23.874 38.6594 19.9085 38.6949 19.8638 38.7673ZM50.4658 46.3641C48.6579 46.6585 46.8432 48.031 46.0091 49.7348C44.1009 53.6328 46.7283 58.2004 51.0684 58.5302C52.8861 58.6683 54.4025 58.0836 55.7878 56.7103C57.0256 55.4834 57.626 54.1132 57.6337 52.4981C57.6517 48.6747 54.2346 45.7506 50.4658 46.3641Z" fill="#0033A0" stroke="white" stroke-width="2" mask="url(#path-1-inside-1_247_7260)"/>
</g>
<defs>
<clipPath id="clip0_247_7260">
<rect width="63.0428" height="63.0428" fill="white" transform="scale(1.01518)"/>
</clipPath>
</defs>
</svg>
