<svg width="238" height="26" viewBox="0 0 238 26" fill="none" xmlns="http://www.w3.org/2000/svg">
<path d="M2.85771 15.953V20.9483H1.66706V8.11084H4.97938C5.65378 8.11084 6.25059 8.1944 6.76982 8.3615C7.28905 8.52861 7.72771 8.77032 8.08579 9.08663C8.44388 9.40294 8.71543 9.79087 8.90044 10.2504C9.08546 10.71 9.17796 11.2352 9.17796 11.826C9.17796 12.4228 9.07352 12.9749 8.86464 13.4822C8.65575 13.9835 8.35436 14.4192 7.96046 14.7892C7.57253 15.1532 7.09807 15.4397 6.53706 15.6486C5.97606 15.8515 5.34045 15.953 4.63024 15.953H2.85771ZM2.85771 9.20301V14.8608H4.55863C5.66273 14.8608 6.50125 14.6042 7.07419 14.0909C7.64714 13.5777 7.93361 12.8525 7.93361 11.9155C7.93361 10.1072 6.87725 9.20301 4.76453 9.20301H2.85771ZM14.6657 21.1632C13.9853 21.1632 13.3736 21.0498 12.8305 20.823C12.2933 20.5962 11.8338 20.2769 11.4518 19.8651C11.0699 19.4473 10.7774 18.949 10.5745 18.3701C10.3716 17.7912 10.2701 17.1496 10.2701 16.4453C10.2701 15.6814 10.3776 14.9981 10.5924 14.3953C10.8073 13.7925 11.1116 13.2822 11.5055 12.8645C11.9054 12.4407 12.3858 12.1184 12.9468 11.8976C13.5078 11.6768 14.1345 11.5664 14.8268 11.5664C15.4893 11.5664 16.0861 11.6768 16.6172 11.8976C17.1484 12.1125 17.599 12.4258 17.969 12.8376C18.3391 13.2494 18.6225 13.7507 18.8195 14.3416C19.0164 14.9324 19.1149 15.6038 19.1149 16.3558C19.1149 17.072 19.0105 17.7255 18.8016 18.3164C18.5987 18.9012 18.3062 19.4055 17.9243 19.8293C17.5423 20.253 17.0768 20.5813 16.5277 20.814C15.9787 21.0468 15.358 21.1632 14.6657 21.1632ZM14.7552 12.5601C14.2539 12.5601 13.8003 12.6466 13.3945 12.8197C12.9886 12.9928 12.6395 13.2464 12.347 13.5806C12.0606 13.9089 11.8398 14.3147 11.6846 14.7981C11.5294 15.2756 11.4518 15.8187 11.4518 16.4274C11.4518 17.0004 11.5294 17.5166 11.6846 17.9762C11.8398 18.4357 12.0576 18.8296 12.3381 19.1579C12.6246 19.4861 12.9707 19.7398 13.3765 19.9188C13.7824 20.0919 14.236 20.1784 14.7373 20.1784C15.2505 20.1784 15.7041 20.0949 16.098 19.9278C16.4919 19.7547 16.8261 19.507 17.1007 19.1847C17.3752 18.8565 17.5811 18.4566 17.7184 17.9851C17.8616 17.5136 17.9332 16.9765 17.9332 16.3737C17.9332 15.1383 17.6587 14.1954 17.1096 13.5448C16.5605 12.8883 15.7757 12.5601 14.7552 12.5601ZM29.7054 20.9483H28.5595L26.6169 14.2162C26.5572 14.0074 26.5094 13.7358 26.4736 13.4016H26.4378C26.4259 13.4911 26.405 13.6015 26.3751 13.7328C26.3513 13.8641 26.3095 14.0193 26.2498 14.1983L24.1102 20.9483H22.9912L20.216 11.7812H21.4425L23.4567 18.8893C23.5164 19.0982 23.5582 19.3638 23.5821 19.686H23.6537C23.6656 19.5786 23.6835 19.4563 23.7074 19.319C23.7372 19.1817 23.776 19.0355 23.8238 18.8803L26.0439 11.7812H26.9928L28.9802 18.8982C29.034 19.1012 29.0787 19.3667 29.1145 19.695H29.1861C29.1802 19.5935 29.1921 19.4772 29.2219 19.3459C29.2518 19.2086 29.2906 19.0594 29.3383 18.8982L31.3526 11.7812H32.5074L29.7054 20.9483ZM34.7186 16.5707C34.7246 17.1317 34.7992 17.636 34.9424 18.0836C35.0856 18.5312 35.2915 18.9102 35.5601 19.2205C35.8287 19.5309 36.1539 19.7696 36.5359 19.9367C36.9238 20.0978 37.3595 20.1784 37.8429 20.1784C38.8754 20.1784 39.8512 19.8173 40.7703 19.0952V20.2232C39.893 20.8498 38.8306 21.1632 37.5833 21.1632C36.9686 21.1632 36.4106 21.0557 35.9092 20.8409C35.4079 20.626 34.9812 20.3157 34.6291 19.9098C34.277 19.498 34.0054 18.9937 33.8144 18.3969C33.6234 17.8001 33.528 17.1197 33.528 16.3558C33.528 15.6695 33.6324 15.0339 33.8413 14.449C34.0502 13.8641 34.3396 13.3598 34.7096 12.9361C35.0797 12.5064 35.5183 12.1722 36.0256 11.9334C36.5329 11.6887 37.088 11.5664 37.6907 11.5664C38.2816 11.5664 38.8038 11.6708 39.2574 11.8797C39.7109 12.0826 40.0899 12.3751 40.3943 12.757C40.7046 13.139 40.9404 13.6045 41.1015 14.1536C41.2627 14.7026 41.3432 15.3174 41.3432 15.9977V16.5707H34.7186ZM40.1615 15.568C40.1436 14.6131 39.9168 13.8731 39.4812 13.3479C39.0455 12.8227 38.4397 12.5601 37.6639 12.5601C37.2759 12.5601 36.9149 12.6287 36.5807 12.766C36.2524 12.9033 35.963 13.1032 35.7123 13.3658C35.4616 13.6224 35.2528 13.9387 35.0856 14.3147C34.9245 14.6847 34.8111 15.1025 34.7455 15.568H40.1615ZM48.138 12.954C47.8694 12.757 47.5232 12.6586 47.0995 12.6586C46.7951 12.6586 46.5266 12.7182 46.2938 12.8376C46.061 12.951 45.8551 13.1062 45.6761 13.3031C45.503 13.5001 45.3538 13.7298 45.2285 13.9924C45.1091 14.2491 45.0107 14.5176 44.9331 14.7981C44.8614 15.0786 44.8077 15.3621 44.7719 15.6486C44.7421 15.9351 44.7272 16.2066 44.7272 16.4632V20.9483H43.5902V11.7812H44.7272V13.7418H44.763C44.8704 13.4076 45.0047 13.1092 45.1658 12.8466C45.3329 12.578 45.5239 12.3542 45.7388 12.1751C45.9536 11.9901 46.1864 11.8499 46.437 11.7544C46.6937 11.6589 46.9622 11.6112 47.2427 11.6112C47.4277 11.6112 47.5919 11.6231 47.7351 11.647C47.8843 11.6708 48.0186 11.7066 48.138 11.7544V12.954ZM50.0985 16.5707C50.1045 17.1317 50.1791 17.636 50.3223 18.0836C50.4655 18.5312 50.6714 18.9102 50.94 19.2205C51.2086 19.5309 51.5338 19.7696 51.9158 19.9367C52.3037 20.0978 52.7394 20.1784 53.2228 20.1784C54.2553 20.1784 55.2311 19.8173 56.1502 19.0952V20.2232C55.2729 20.8498 54.2105 21.1632 52.9632 21.1632C52.3485 21.1632 51.7905 21.0557 51.2891 20.8409C50.7878 20.626 50.3611 20.3157 50.009 19.9098C49.6568 19.498 49.3853 18.9937 49.1943 18.3969C49.0033 17.8001 48.9078 17.1197 48.9078 16.3558C48.9078 15.6695 49.0123 15.0339 49.2212 14.449C49.4301 13.8641 49.7195 13.3598 50.0895 12.9361C50.4596 12.5064 50.8982 12.1722 51.4055 11.9334C51.9128 11.6887 52.4678 11.5664 53.0706 11.5664C53.6615 11.5664 54.1837 11.6708 54.6373 11.8797C55.0908 12.0826 55.4698 12.3751 55.7742 12.757C56.0845 13.139 56.3203 13.6045 56.4814 14.1536C56.6426 14.7026 56.7231 15.3174 56.7231 15.9977V16.5707H50.0985ZM55.5414 15.568C55.5235 14.6131 55.2967 13.8731 54.8611 13.3479C54.4254 12.8227 53.8196 12.5601 53.0438 12.5601C52.6558 12.5601 52.2948 12.6287 51.9605 12.766C51.6323 12.9033 51.3428 13.1032 51.0922 13.3658C50.8415 13.6224 50.6326 13.9387 50.4655 14.3147C50.3044 14.6847 50.191 15.1025 50.1253 15.568H55.5414ZM65.3978 20.9483V19.3369H65.362C65.0576 19.9158 64.6219 20.3664 64.055 20.6887C63.494 21.005 62.8554 21.1632 62.1392 21.1632C61.5663 21.1632 61.044 21.0587 60.5726 20.8498C60.1071 20.635 59.7072 20.3276 59.373 19.9278C59.0388 19.5279 58.7791 19.0445 58.5941 18.4775C58.4151 17.9105 58.3256 17.2689 58.3256 16.5528C58.3256 15.8127 58.424 15.1383 58.621 14.5296C58.8239 13.9149 59.1074 13.3897 59.4714 12.954C59.8415 12.5123 60.2831 12.1722 60.7964 11.9334C61.3156 11.6887 61.8915 11.5664 62.5241 11.5664C63.8431 11.5664 64.7891 12.0946 65.362 13.1509H65.3978V7.37676H66.5437V20.9483H65.3978ZM65.3978 15.4158C65.3978 15.016 65.3292 14.643 65.1919 14.2968C65.0546 13.9507 64.8637 13.6493 64.619 13.3926C64.3743 13.136 64.0788 12.9331 63.7327 12.7839C63.3925 12.6347 63.0165 12.5601 62.6047 12.5601C62.1511 12.5601 61.7334 12.6496 61.3514 12.8287C60.9694 13.0077 60.6412 13.2673 60.3667 13.6075C60.0981 13.9417 59.8862 14.3505 59.7311 14.8339C59.5819 15.3174 59.5073 15.8664 59.5073 16.4812C59.5073 17.0601 59.5759 17.5793 59.7132 18.0388C59.8504 18.4984 60.0444 18.8863 60.295 19.2026C60.5517 19.5189 60.8561 19.7606 61.2082 19.9278C61.5603 20.0949 61.9512 20.1784 62.3809 20.1784C62.8464 20.1784 63.2642 20.0949 63.6342 19.9278C64.0102 19.7606 64.3265 19.5309 64.5832 19.2384C64.8458 18.946 65.0457 18.6028 65.183 18.2089C65.3262 17.815 65.3978 17.3943 65.3978 16.9467V15.4158ZM75.6749 19.4712V20.9483H74.5291V7.37676H75.6749V13.5359H75.7107C76.0509 12.8973 76.5045 12.4109 77.0715 12.0767C77.6444 11.7365 78.289 11.5664 79.0052 11.5664C79.59 11.5664 80.1122 11.6738 80.5718 11.8887C81.0373 12.0976 81.4282 12.3989 81.7445 12.7928C82.0668 13.1867 82.3115 13.6612 82.4786 14.2162C82.6517 14.7713 82.7382 15.389 82.7382 16.0694C82.7382 16.8273 82.6398 17.5196 82.4428 18.1463C82.2518 18.7669 81.9773 19.3011 81.6192 19.7487C81.2611 20.1963 80.8254 20.5455 80.3122 20.7961C79.8049 21.0408 79.2349 21.1632 78.6023 21.1632C77.3072 21.1632 76.3434 20.5992 75.7107 19.4712H75.6749ZM75.6749 17.1347C75.6749 17.5524 75.7436 17.9463 75.8808 18.3164C76.0241 18.6804 76.221 19.0027 76.4717 19.2832C76.7223 19.5577 77.0237 19.7756 77.3759 19.9367C77.7339 20.0978 78.1278 20.1784 78.5575 20.1784C79.0171 20.1784 79.4319 20.0829 79.8019 19.8919C80.1719 19.695 80.4853 19.4175 80.7419 19.0594C81.0045 18.7013 81.2044 18.2686 81.3417 17.7613C81.4849 17.254 81.5565 16.6871 81.5565 16.0604C81.5565 15.5233 81.4909 15.0398 81.3596 14.6101C81.2283 14.1745 81.0403 13.8044 80.7956 13.5001C80.5569 13.1957 80.2644 12.9629 79.9183 12.8018C79.5781 12.6407 79.1961 12.5601 78.7724 12.5601C78.2949 12.5601 77.8652 12.6496 77.4833 12.8287C77.1013 13.0017 76.7761 13.2405 76.5075 13.5448C76.2389 13.8492 76.033 14.2073 75.8898 14.6191C75.7466 15.0249 75.6749 15.4576 75.6749 15.9172V17.1347ZM87.7157 22.6134C87.3576 23.5086 86.9458 24.1711 86.4802 24.6008C86.0147 25.0365 85.4507 25.2543 84.7883 25.2543C84.46 25.2543 84.1825 25.2155 83.9557 25.1379V24.0637C84.087 24.1114 84.2183 24.1472 84.3496 24.1711C84.4869 24.195 84.6242 24.2069 84.7614 24.2069C85.1374 24.2069 85.4627 24.0875 85.7372 23.8488C86.0177 23.6161 86.2594 23.261 86.4623 22.7835L87.2591 20.9035L83.7319 11.7812H85.0031L87.6261 19.0415C87.6619 19.137 87.6948 19.2474 87.7246 19.3727C87.7604 19.4921 87.7932 19.6114 87.8231 19.7308H87.8678C87.8977 19.6293 87.9245 19.5279 87.9484 19.4264C87.9783 19.319 88.017 19.2026 88.0648 19.0773L90.8489 11.7812H92.0575L87.7157 22.6134Z" fill="black"/>
<g clip-path="url(#clip0_73_968)">
<path d="M129.767 10.5313H126.123V20.1616H124.816V10.5313H121.179V9.33899H129.773L129.767 10.5313Z" fill="black"/>
<path d="M126.234 20.2795H124.695V10.6451H121.054V9.22083H129.874V10.6451H126.234V20.2795ZM124.925 20.0557H126.004V10.4193H129.648V9.45075H121.282V10.4193H124.925V20.0557Z" fill="black"/>
<path d="M131.307 9.33899H138.236V10.5313H132.614V13.9273H137.861V15.1196H132.614V18.9856H138.515V20.1616H131.307V9.33899Z" fill="black"/>
<path d="M138.627 20.2821H131.188V9.22949H138.347V10.6538H132.725V13.8178H137.975V15.2421H132.725V18.8639H138.627V20.2821ZM131.418 20.0583H138.399V19.0897H132.498V15.0203H137.745V14.0436H132.498V10.4218H138.118V9.45331H131.418V20.0583Z" fill="black"/>
<path d="M148.262 11.5716C147.944 11.1457 147.52 10.8068 147.031 10.5868C146.553 10.3692 146.032 10.2567 145.505 10.2571C144.921 10.2509 144.343 10.3762 143.816 10.6234C143.309 10.8639 142.857 11.2015 142.484 11.6163C142.106 12.0338 141.81 12.5168 141.612 13.0406C141.404 13.5859 141.298 14.1635 141.3 14.7457C141.295 15.3481 141.401 15.9464 141.612 16.5119C141.806 17.036 142.099 17.5194 142.476 17.9362C142.846 18.3404 143.297 18.6659 143.8 18.8925C144.356 19.1324 144.957 19.2531 145.565 19.2464C146.172 19.2398 146.771 19.1059 147.321 18.8538C147.863 18.5855 148.336 18.2018 148.707 17.7307L149.689 18.5446C149.226 19.1695 148.606 19.6653 147.889 19.9831C147.139 20.2979 146.33 20.4539 145.515 20.4409C144.756 20.4472 144.004 20.3018 143.305 20.0136C142.636 19.7391 142.029 19.3357 141.521 18.8274C141.009 18.3115 140.607 17.7008 140.338 17.0307C140.046 16.3056 139.901 15.5316 139.91 14.7518C139.903 13.9868 140.044 13.2274 140.324 12.5136C140.724 11.4838 141.437 10.5996 142.366 9.9809C143.295 9.3622 144.395 9.03884 145.517 9.05463C146.255 9.05604 146.987 9.1941 147.673 9.46157C148.365 9.72659 148.966 10.1771 149.409 10.7618L148.262 11.5716Z" fill="black"/>
<path d="M145.504 20.5547C144.73 20.5601 143.962 20.4113 143.248 20.1173C142.566 19.8353 141.947 19.4239 141.427 18.9066C140.906 18.3799 140.496 17.7577 140.22 17.0754C139.924 16.3363 139.776 15.5479 139.785 14.7537C139.777 13.9767 139.918 13.2052 140.199 12.4789C140.608 11.4275 141.337 10.525 142.286 9.8936C143.234 9.26219 144.358 8.93234 145.504 8.9487C146.256 8.94729 147.002 9.08535 147.702 9.35564C148.412 9.62803 149.031 10.0904 149.487 10.6904L149.56 10.784L148.236 11.7261L148.168 11.6386C147.861 11.2276 147.454 10.8999 146.983 10.6863C146.519 10.4761 146.015 10.3672 145.504 10.3669C144.937 10.3618 144.377 10.4835 143.865 10.723C143.373 10.9565 142.933 11.2828 142.569 11.6834C142.2 12.095 141.912 12.5704 141.719 13.0853C141.516 13.6182 141.413 14.1827 141.415 14.7517C141.409 15.3409 141.513 15.9261 141.719 16.4792C141.908 16.989 142.194 17.4591 142.56 17.8648C142.92 18.2574 143.358 18.5738 143.847 18.7947C144.386 19.0261 144.968 19.1425 145.557 19.1362C146.145 19.1299 146.725 19.001 147.258 18.7581C147.784 18.4952 148.245 18.1214 148.607 17.6634L148.679 17.5739L149.833 18.5322L149.769 18.6177C149.293 19.2558 148.658 19.7631 147.925 20.0908C147.16 20.4097 146.335 20.5678 145.504 20.5547ZM145.504 9.17455C144.744 9.16713 143.991 9.31471 143.292 9.60795C142.635 9.88525 142.043 10.2896 141.549 10.7969C141.055 11.3041 140.671 11.9039 140.418 12.5603C140.142 13.2589 140.001 14.0022 140.004 14.7517C139.994 15.517 140.135 16.2769 140.418 16.9899C140.683 17.6461 141.077 18.2448 141.576 18.752C142.075 19.2476 142.669 19.6417 143.323 19.9118C144.009 20.1935 144.746 20.3361 145.489 20.3309C146.289 20.3436 147.082 20.1904 147.818 19.8812C148.482 19.5855 149.062 19.1333 149.506 18.5648L148.723 17.8954C148.353 18.3381 147.893 18.7005 147.372 18.9595C146.808 19.217 146.194 19.3535 145.571 19.3602C144.949 19.3669 144.332 19.2435 143.762 18.9982C143.245 18.7651 142.782 18.4307 142.401 18.0154C142.014 17.589 141.714 17.0947 141.514 16.5585C141.299 15.9799 141.191 15.3679 141.195 14.7517C141.194 14.1557 141.302 13.5644 141.514 13.0059C141.717 12.4651 142.02 11.9656 142.407 11.5328C142.79 11.1084 143.255 10.7626 143.774 10.5154C144.317 10.2603 144.912 10.1308 145.514 10.137C146.058 10.1372 146.595 10.2524 147.089 10.4747C147.557 10.6896 147.966 11.0104 148.284 11.4107L149.232 10.7331C148.809 10.2094 148.253 9.80503 147.619 9.56115C146.945 9.30317 146.227 9.17136 145.504 9.17252V9.17455Z" fill="black"/>
<path d="M151.5 9.33899H152.809V13.9273H158.694V9.33899H160.003V20.1616H158.694V15.1196H152.809V20.1616H151.5V9.33899Z" fill="black"/>
<path d="M160.12 20.2821H158.583V15.236H152.926V20.2821H151.389V9.22949H152.926V13.8178H158.583V9.22949H160.12V20.2821ZM158.811 20.0583H159.89V9.45331H158.811V14.0436H152.696V9.45331H151.627V20.0583H152.704V15.0101H158.819L158.811 20.0583Z" fill="black"/>
<path d="M175.342 16.0373C175.345 16.6056 175.269 17.1717 175.117 17.72C174.977 18.2295 174.733 18.7057 174.4 19.1199C174.055 19.5359 173.615 19.8663 173.115 20.0843C171.874 20.5617 170.495 20.5617 169.254 20.0843C168.754 19.8669 168.313 19.5365 167.968 19.1199C167.636 18.7056 167.393 18.2293 167.253 17.72C167.1 17.1719 167.024 16.6057 167.027 16.0373V9.33899H168.335V15.8501C168.334 16.2771 168.381 16.703 168.475 17.1197C168.56 17.5076 168.718 17.8763 168.941 18.2063C169.165 18.525 169.464 18.785 169.814 18.9632C170.245 19.1497 170.712 19.2459 171.184 19.2459C171.656 19.2459 172.122 19.1497 172.554 18.9632C172.904 18.7861 173.204 18.5259 173.426 18.2063C173.651 17.8764 173.81 17.5077 173.894 17.1197C173.988 16.7029 174.035 16.277 174.033 15.8501V9.33899H175.342V16.0373Z" fill="black"/>
<path d="M171.183 20.5588C170.503 20.5767 169.828 20.4504 169.202 20.1885C168.687 19.9634 168.233 19.6226 167.877 19.1935C167.535 18.7669 167.284 18.2769 167.139 17.7529C166.984 17.1953 166.907 16.6197 166.909 16.0417V9.22949H168.448V15.8566C168.447 16.2753 168.493 16.693 168.585 17.1018C168.666 17.4759 168.819 17.8314 169.035 18.1497C169.246 18.453 169.531 18.7004 169.863 18.87C170.278 19.0484 170.726 19.1406 171.18 19.1406C171.633 19.1406 172.081 19.0484 172.496 18.87C172.829 18.7015 173.114 18.4539 173.325 18.1497C173.543 17.8351 173.701 17.4832 173.789 17.112C173.881 16.7031 173.927 16.2855 173.925 15.8667V9.22949H175.446V16.0417C175.449 16.6198 175.371 17.1955 175.216 17.7529C175.072 18.2772 174.821 18.7674 174.478 19.1935C174.122 19.623 173.668 19.9639 173.153 20.1885C172.531 20.4493 171.859 20.5756 171.183 20.5588ZM167.139 9.45331V16.0417C167.138 16.5994 167.215 17.1546 167.367 17.6919C167.503 18.1873 167.739 18.6505 168.063 19.0531C168.397 19.455 168.823 19.7736 169.306 19.983C170.516 20.4496 171.861 20.4496 173.072 19.983C173.555 19.7731 173.98 19.4545 174.315 19.0531C174.637 18.6501 174.873 18.187 175.009 17.6919C175.158 17.1542 175.233 16.5991 175.23 16.0417V9.45331H174.153V15.8566C174.154 16.2918 174.107 16.7258 174.01 17.1506C173.922 17.5523 173.758 17.934 173.525 18.2758C173.292 18.6103 172.978 18.8829 172.612 19.0694C172.163 19.2642 171.678 19.3649 171.188 19.3649C170.697 19.3649 170.212 19.2642 169.764 19.0694C169.397 18.883 169.083 18.6104 168.85 18.2758C168.619 17.9339 168.455 17.5522 168.368 17.1506C168.271 16.7258 168.223 16.2918 168.225 15.8566V9.45331H167.139Z" fill="black"/>
<path d="M178.034 9.33899H179.691L186.069 18.3304H186.1V9.33899H187.41V20.1616H185.752L179.383 11.1743H179.352V20.1616H178.042L178.034 9.33899Z" fill="black"/>
<path d="M187.526 20.2821H185.701L179.46 11.4921V20.2821H177.923V9.22949H179.748L185.989 18.0195V9.22949H187.526V20.2821ZM185.821 20.0583H187.296V9.45331H186.221V18.4468H186.014L179.628 9.45331H178.153V20.0583H179.23V11.0648H179.437L185.821 20.0583Z" fill="black"/>
<path d="M190.159 9.33899H191.466V20.1616H190.159V9.33899Z" fill="black"/>
<path d="M191.571 20.2821H190.034V9.22949H191.571V20.2821ZM190.264 20.0583H191.343V9.45331H190.264V20.0583Z" fill="black"/>
<path d="M201.923 11.5695C201.605 11.1437 201.181 10.8047 200.692 10.5847C200.214 10.3671 199.693 10.2546 199.166 10.2551C198.581 10.2488 198.003 10.3741 197.476 10.6214C196.97 10.8625 196.518 11.2 196.146 11.6143C195.767 12.0318 195.472 12.5148 195.274 13.0386C195.065 13.5836 194.959 14.1614 194.961 14.7437C194.955 15.3462 195.061 15.9446 195.274 16.5098C195.467 17.034 195.76 17.5173 196.137 17.9341C196.507 18.3384 196.958 18.6638 197.461 18.8905C198.017 19.1304 198.619 19.2511 199.226 19.2444C199.833 19.2377 200.432 19.1039 200.982 18.8518C201.523 18.583 201.997 18.1993 202.368 17.7286L203.35 18.5425C202.887 19.1685 202.266 19.665 201.548 19.9831C200.798 20.2979 199.989 20.4539 199.174 20.4409C198.415 20.4472 197.663 20.3018 196.964 20.0136C196.295 19.7391 195.688 19.3357 195.18 18.8274C194.669 18.3115 194.267 17.7008 193.998 17.0307C193.706 16.3056 193.56 15.5316 193.569 14.7518C193.562 13.9868 193.703 13.2274 193.983 12.5136C194.383 11.4838 195.096 10.5996 196.025 9.9809C196.954 9.3622 198.054 9.03884 199.176 9.05463C199.915 9.05604 200.646 9.1941 201.333 9.46157C202.024 9.72659 202.625 10.1771 203.068 10.7618L201.923 11.5695Z" fill="black"/>
<path d="M199.164 20.5548C198.39 20.5602 197.622 20.4113 196.908 20.1173C196.226 19.8358 195.607 19.4243 195.087 18.9066C194.566 18.38 194.156 17.7577 193.88 17.0754C193.583 16.3364 193.435 15.5481 193.443 14.7538C193.436 13.9769 193.577 13.2055 193.857 12.479C194.267 11.4272 194.995 10.5245 195.945 9.89304C196.894 9.2616 198.018 8.93195 199.164 8.94873C199.916 8.94732 200.662 9.08538 201.362 9.35567C202.072 9.62806 202.691 10.0904 203.147 10.6904L203.22 10.784L201.896 11.7261L201.828 11.6386C201.522 11.2276 201.114 10.8999 200.643 10.6864C200.179 10.4764 199.675 10.3674 199.164 10.3669C198.597 10.3618 198.037 10.4836 197.526 10.723C197.033 10.9565 196.593 11.2828 196.229 11.6834C195.86 12.095 195.572 12.5704 195.38 13.0853C195.177 13.6182 195.073 14.1828 195.075 14.7517C195.07 15.3409 195.173 15.9262 195.38 16.4792C195.569 16.989 195.854 17.4591 196.221 17.8649C196.581 18.2574 197.018 18.5738 197.507 18.7947C198.047 19.027 198.631 19.1439 199.22 19.1376C199.809 19.1313 200.39 19.0019 200.925 18.7581C201.451 18.4952 201.911 18.1214 202.273 17.6634L202.346 17.5739L203.493 18.5323L203.429 18.6177C202.953 19.2558 202.319 19.7631 201.586 20.0908C200.82 20.4098 199.995 20.5678 199.164 20.5548ZM199.164 9.17255C198.404 9.16489 197.651 9.31248 196.952 9.60594C196.297 9.8846 195.706 10.2898 195.215 10.7973C194.723 11.3049 194.34 11.9045 194.089 12.5604C193.813 13.2589 193.672 14.0023 193.675 14.7517C193.664 15.5171 193.805 16.2773 194.089 16.9899C194.354 17.6461 194.747 18.2449 195.247 18.752C195.746 19.2476 196.339 19.6417 196.993 19.9118C197.679 20.1935 198.416 20.3361 199.16 20.3309C199.96 20.3435 200.753 20.1903 201.488 19.8813C202.152 19.586 202.732 19.1337 203.174 18.5648L202.375 17.8954C202.005 18.3376 201.546 18.6999 201.026 18.9595C200.462 19.217 199.848 19.3536 199.225 19.3602C198.603 19.3669 197.986 19.2435 197.416 18.9982C196.899 18.7651 196.436 18.4307 196.055 18.0154C195.668 17.589 195.368 17.0947 195.168 16.5586C194.953 15.9799 194.845 15.3679 194.849 14.7517C194.848 14.1557 194.956 13.5644 195.168 13.006C195.371 12.4651 195.674 11.9657 196.061 11.5328C196.444 11.1084 196.909 10.7627 197.428 10.5155C197.971 10.2603 198.566 10.1308 199.168 10.137C199.712 10.1372 200.249 10.2524 200.743 10.4748C201.213 10.6894 201.624 11.0101 201.944 11.4107L202.893 10.7332C202.47 10.2094 201.913 9.80506 201.279 9.56118C200.605 9.3032 199.888 9.17139 199.164 9.17255Z" fill="black"/>
<path d="M210.286 20.4409C209.493 20.4504 208.707 20.3052 207.972 20.0136C207.29 19.7407 206.671 19.3375 206.149 18.8274C205.628 18.3128 205.22 17.6985 204.952 17.0226C204.661 16.2999 204.515 15.5289 204.523 14.7519C204.515 13.9749 204.661 13.2038 204.952 12.4811C205.221 11.8054 205.628 11.1911 206.149 10.6763C206.671 10.167 207.291 9.76384 207.972 9.49009C209.458 8.9203 211.109 8.9203 212.595 9.49009C213.277 9.76332 213.896 10.1665 214.418 10.6763C214.939 11.1916 215.347 11.8057 215.617 12.4811C215.91 13.2035 216.057 13.9746 216.05 14.7519C216.058 15.5289 215.912 16.2999 215.622 17.0226C215.351 17.6983 214.943 18.3126 214.422 18.8274C213.901 19.3379 213.281 19.7412 212.599 20.0136C211.865 20.3052 211.078 20.4504 210.286 20.4409ZM210.286 19.2486C210.893 19.2565 211.496 19.1365 212.053 18.8966C212.574 18.6712 213.044 18.3437 213.432 17.9342C213.82 17.5194 214.123 17.0361 214.327 16.5099C214.543 15.9503 214.651 15.3563 214.646 14.758C214.651 14.1597 214.543 13.5657 214.327 13.0061C214.123 12.4799 213.82 11.9965 213.432 11.5818C213.044 11.1722 212.574 10.8448 212.053 10.6194C211.493 10.387 210.893 10.2673 210.286 10.2673C209.678 10.2673 209.078 10.387 208.519 10.6194C207.999 10.8409 207.531 11.1642 207.143 11.5696C206.754 11.9837 206.45 12.4672 206.246 12.9939C205.821 14.1244 205.821 15.3671 206.246 16.4977C206.45 17.0244 206.754 17.5078 207.143 17.922C207.53 18.3319 207.999 18.6595 208.521 18.8844C209.076 19.1282 209.678 19.2524 210.286 19.2486Z" fill="black"/>
<path d="M210.285 20.5561C209.479 20.5649 208.678 20.4162 207.93 20.1186C207.233 19.8411 206.6 19.4303 206.066 18.91C205.535 18.3831 205.119 17.756 204.842 17.0665C204.546 16.33 204.398 15.5446 204.405 14.753C204.398 13.9615 204.546 13.1761 204.842 12.4396C205.119 11.7541 205.536 11.1311 206.066 10.6083C206.6 10.0881 207.234 9.67663 207.93 9.39767C209.445 8.81447 211.128 8.81447 212.643 9.39767C213.339 9.67696 213.973 10.0884 214.507 10.6083C215.038 11.1341 215.455 11.7606 215.731 12.4497C216.026 13.1863 216.175 13.9717 216.168 14.7632C216.175 15.5548 216.027 16.3402 215.731 17.0767C215.454 17.7662 215.038 18.3933 214.507 18.9201C213.973 19.4402 213.339 19.851 212.643 20.1288C211.893 20.4227 211.092 20.5679 210.285 20.5561ZM210.285 9.17588C209.509 9.16733 208.738 9.30978 208.017 9.59504C207.35 9.86258 206.744 10.2575 206.234 10.7569C205.724 11.2608 205.324 11.8618 205.059 12.523C204.775 13.2359 204.635 13.9959 204.645 14.7612C204.635 15.5265 204.775 16.2865 205.059 16.9994C205.324 17.6606 205.724 18.2616 206.234 18.7655C206.744 19.2649 207.35 19.6598 208.017 19.9273C209.476 20.4862 211.095 20.4862 212.554 19.9273C213.221 19.6593 213.828 19.2645 214.339 18.7655C214.848 18.2613 215.247 17.6603 215.512 16.9994C215.795 16.2865 215.936 15.5265 215.926 14.7612C215.936 13.9959 215.795 13.2359 215.512 12.523C215.247 11.8623 214.848 11.2614 214.339 10.7569C213.828 10.2579 213.221 9.86306 212.554 9.59504C211.833 9.30888 211.062 9.16573 210.285 9.17385V9.17588ZM210.285 19.3617C209.661 19.3688 209.043 19.2461 208.471 19.0015C207.936 18.7684 207.455 18.4313 207.056 18.0106C206.658 17.5842 206.346 17.0869 206.138 16.5456C205.702 15.3897 205.702 14.1184 206.138 12.9625C206.346 12.4202 206.657 11.9221 207.056 11.4955C207.455 11.0748 207.936 10.7377 208.471 10.5046C209.045 10.2668 209.662 10.1444 210.285 10.1444C210.909 10.1444 211.526 10.2668 212.1 10.5046C212.635 10.7371 213.117 11.0743 213.515 11.4955C213.914 11.922 214.227 12.4201 214.435 12.9625C214.868 14.1189 214.868 15.3892 214.435 16.5456C214.227 17.0874 213.914 17.5848 213.515 18.0106C213.117 18.4322 212.635 18.7694 212.1 19.0015C211.528 19.2461 210.909 19.3688 210.285 19.3617ZM210.285 10.3682C209.694 10.3621 209.108 10.4785 208.566 10.7101C208.059 10.9305 207.602 11.2496 207.224 11.6481C206.846 12.0536 206.55 12.5259 206.352 13.0398C206.142 13.5866 206.037 14.1667 206.041 14.751C206.036 15.3353 206.142 15.9155 206.352 16.4622C206.55 16.9769 206.846 17.4499 207.224 17.856C207.602 18.2549 208.058 18.5741 208.566 18.794C209.111 19.0196 209.695 19.1358 210.286 19.1358C210.877 19.1358 211.462 19.0196 212.007 18.794C212.517 18.5759 212.977 18.2573 213.357 17.858C213.736 17.4524 214.032 16.9793 214.229 16.4642C214.647 15.3602 214.647 14.1459 214.229 13.0418C214.032 12.5268 213.736 12.0537 213.357 11.6481C212.98 11.2496 212.524 10.9305 212.017 10.7101C211.471 10.4771 210.881 10.3606 210.285 10.3682Z" fill="black"/>
<path d="M218.146 9.33899H220.965C221.493 9.33889 222.021 9.36946 222.545 9.43055C223.035 9.48388 223.512 9.62164 223.954 9.8375C224.368 10.0388 224.719 10.3477 224.967 10.7307C225.25 11.2161 225.385 11.7713 225.356 12.33C225.371 12.683 225.314 13.0354 225.188 13.3664C225.062 13.6973 224.87 14.0001 224.623 14.2569C224.071 14.7774 223.36 15.1055 222.599 15.1908L225.729 20.1616H224.126L221.137 15.2987H219.455V20.1616H218.146V9.33899ZM219.455 14.1104H220.623C220.985 14.1104 221.362 14.1002 221.752 14.0799C222.118 14.0623 222.479 13.9938 222.825 13.8764C223.137 13.7727 223.417 13.5903 223.635 13.3474C223.866 13.0534 223.98 12.6864 223.954 12.3158C223.97 11.989 223.889 11.6646 223.722 11.3818C223.567 11.1505 223.352 10.9632 223.1 10.8386C222.832 10.7123 222.545 10.6312 222.249 10.5985C221.932 10.5578 221.612 10.5374 221.292 10.5374H219.455V14.1104Z" fill="black"/>
<path d="M225.938 20.2821H224.073L221.082 15.4191H219.572V20.2821H218.035V9.22949H220.968C221.501 9.22945 222.033 9.26002 222.561 9.32105C223.065 9.37315 223.556 9.51085 224.011 9.728C224.443 9.94018 224.808 10.2629 225.068 10.6619C225.365 11.1648 225.509 11.7412 225.482 12.3223C225.497 12.6898 225.438 13.0567 225.306 13.4013C225.175 13.7458 224.975 14.0611 224.718 14.3285C224.192 14.8289 223.521 15.1561 222.797 15.2645L225.938 20.2821ZM224.194 20.0583H225.528L222.42 15.0997L222.592 15.0732C223.325 14.9889 224.01 14.6725 224.544 14.1718C224.78 13.9252 224.963 13.6346 225.083 13.3173C225.203 13.0001 225.257 12.6624 225.242 12.3243C225.27 11.7873 225.141 11.2536 224.871 10.7861C224.633 10.4205 224.299 10.1252 223.904 9.93147C223.473 9.72526 223.009 9.59443 222.532 9.54487C222.013 9.48385 221.49 9.45327 220.966 9.45331H218.273V20.0583H219.351V15.1932H221.215L224.194 20.0583ZM220.627 14.2268H219.342V10.4218H221.296C221.62 10.4218 221.945 10.4422 222.267 10.4829C222.579 10.5206 222.881 10.6101 223.162 10.7474C223.43 10.8806 223.658 11.0815 223.821 11.3293C224.002 11.6298 224.089 11.9756 224.073 12.3243C224.098 12.7225 223.974 13.1159 223.725 13.4312C223.494 13.6878 223.198 13.8807 222.868 13.9907C222.51 14.108 222.138 14.1765 221.762 14.1942C221.372 14.2166 220.991 14.2268 220.627 14.2268ZM219.572 14.0009H220.627C220.987 14.0009 221.364 13.9907 221.749 13.9704C222.102 13.9535 222.451 13.8885 222.785 13.7771C223.079 13.6818 223.341 13.5111 223.545 13.2826C223.757 13.0084 223.861 12.6679 223.837 12.3243C223.855 12.0198 223.783 11.7168 223.63 11.4514C223.488 11.237 223.291 11.0636 223.058 10.9488C222.799 10.8209 222.518 10.7389 222.23 10.7067C221.917 10.6678 221.602 10.6481 221.287 10.6477H219.572V14.0009Z" fill="black"/>
<path d="M227.655 9.33899H229.312L235.69 18.3304H235.721V9.33899H237.03V20.1616H235.373L228.989 11.1682H228.958V20.1616H227.648L227.655 9.33899Z" fill="black"/>
<path d="M237.151 20.2821H235.326L229.085 11.4921V20.2821H227.548V9.22949H229.373L235.614 18.0195V9.22949H237.151V20.2821ZM235.446 20.0583H236.921V9.45331H235.844V18.4468H235.637L229.253 9.45331H227.778V20.0583H228.855V11.0648H229.062L235.446 20.0583Z" fill="black"/>
<path d="M115.527 7.74945H112.072V11.1428H115.527V7.74945Z" fill="#F3E500"/>
<path d="M104.538 14.9675H101.083V18.3609H104.538V14.9675Z" fill="#87E1D1"/>
<path d="M112.076 7.74951H105.982C105.982 7.74951 102.948 7.88584 101.593 10.7609C101.25 11.5104 101.076 12.3239 101.083 13.1456V14.9768H104.538V13.0174C104.538 12.2951 104.816 11.9654 105.222 11.6114C105.599 11.2931 106.084 11.126 106.581 11.1434H112.076V7.74951Z" fill="#2ED9C3"/>
<path d="M107.991 18.3638H104.536V21.7571H107.991V18.3638Z" fill="#E74F3D"/>
<path d="M110.59 21.7569H107.993V18.3635H110.135C110.599 18.3685 111.051 18.2186 111.417 17.9383C111.597 17.7976 111.746 17.6232 111.857 17.4252C111.967 17.2271 112.037 17.0095 112.061 16.7848C112.065 16.7062 112.065 16.6275 112.061 16.5489V14.8217H115.53V16.7767C115.537 17.6366 115.334 18.4856 114.938 19.2525C114.64 19.8368 114.217 20.35 113.696 20.7563C113.176 21.1626 112.571 21.452 111.924 21.6043C111.488 21.709 111.04 21.7602 110.59 21.7569Z" fill="#3CB4E5"/>
</g>
<defs>
<clipPath id="clip0_73_968">
<rect width="136.068" height="14.007" fill="white" transform="translate(101.079 7.75116)"/>
</clipPath>
</defs>
</svg>
