<svg width="54" height="54" viewBox="0 0 54 54" fill="none" xmlns="http://www.w3.org/2000/svg">
<path d="M52.8121 18.5593L35.4387 1.18578C35.0628 0.809849 34.6166 0.511637 34.1255 0.308179C33.6344 0.10472 33.108 0 32.5764 0C32.0448 0 31.5184 0.10472 31.0273 0.308179C30.5362 0.511637 30.0899 0.809849 29.7141 1.18578L22.5198 8.38004L7.84802 13.8845C7.18134 14.1326 6.59181 14.552 6.13883 15.1004C5.68585 15.6489 5.38542 16.307 5.2678 17.0086L0.0137673 48.5277C-0.0214549 48.7391 0.0113178 48.9561 0.107364 49.1477C0.203411 49.3392 0.357773 49.4953 0.548213 49.5935C0.738654 49.6916 0.955342 49.7268 1.16706 49.694C1.37878 49.6611 1.57461 49.5619 1.72632 49.4106L16.1452 34.9917C15.6883 34.0412 15.4886 32.9876 15.5659 31.9359C15.66 30.6421 16.166 29.4123 17.0098 28.427C17.8537 27.4417 18.991 26.7526 20.255 26.4607C21.519 26.1688 22.8432 26.2894 24.0337 26.805C25.2241 27.3205 26.2181 28.2038 26.87 29.3254C27.5219 30.447 27.7973 31.7479 27.656 33.0375C27.5147 34.3271 26.964 35.5374 26.0847 36.4912C25.2054 37.445 24.0436 38.0921 22.7698 38.3375C21.496 38.583 20.177 38.414 19.0062 37.8552L4.58733 52.2741C4.43604 52.4258 4.33682 52.6217 4.30395 52.8334C4.27109 53.0451 4.30628 53.2618 4.40445 53.4522C4.50262 53.6427 4.65872 53.797 4.85024 53.8931C5.04176 53.9891 5.25883 54.0219 5.47017 53.9867L36.9918 48.7326C37.6923 48.6159 38.3497 48.317 38.898 47.8659C39.4464 47.4148 39.8664 46.8273 40.1159 46.1625L45.6229 31.473L52.8121 24.2863C53.188 23.9105 53.4863 23.4643 53.6897 22.9731C53.8932 22.482 53.9979 21.9556 53.9979 21.4241C53.9979 20.8925 53.8932 20.3661 53.6897 19.875C53.4863 19.3839 53.188 18.9376 52.8121 18.5618V18.5593ZM43.88 27.4939L26.5065 10.1204L32.5776 4.04932L49.9511 21.4228L43.88 27.4939Z" fill="#0033A0"/>
</svg>
