<svg width="17" height="17" viewBox="0 0 17 17" fill="none" xmlns="http://www.w3.org/2000/svg">
<rect opacity="0.1" x="0.450195" y="0.865662" width="16" height="16" rx="3.02213" fill="#0033A0"/>
<path d="M9.6 10.4H11.25C12.185 10.4 12.9 9.685 12.9 8.75C12.9 7.815 12.185 7.1 11.25 7.1H9.6C9.27 7.1 9.05 6.88 9.05 6.55C9.05 6.22 9.27 6 9.6 6H11.25C12.79 6 14 7.21 14 8.75C14 10.29 12.79 11.5 11.25 11.5H9.6C9.27 11.5 9.05 11.28 9.05 10.95C9.05 10.62 9.27 10.4 9.6 10.4ZM5.75 6H7.4C7.73 6 7.95 6.22 7.95 6.55C7.95 6.88 7.73 7.1 7.4 7.1H5.75C4.815 7.1 4.1 7.815 4.1 8.75C4.1 9.685 4.815 10.4 5.75 10.4H7.4C7.73 10.4 7.95 10.62 7.95 10.95C7.95 11.28 7.73 11.5 7.4 11.5H5.75C4.21 11.5 3 10.29 3 8.75C3 7.21 4.21 6 5.75 6ZM10.7 8.75C10.7 9.08 10.48 9.3 10.15 9.3H6.85C6.52 9.3 6.3 9.08 6.3 8.75C6.3 8.42 6.52 8.2 6.85 8.2H10.15C10.48 8.2 10.7 8.42 10.7 8.75Z" fill="#0033A0"/>
</svg>
