<svg width="79" height="51" viewBox="0 0 79 51" fill="none" xmlns="http://www.w3.org/2000/svg">
<path d="M53.5566 21.1722C59.3463 21.1722 64.0838 16.5193 64.0838 10.8332C64.0838 5.14722 59.3463 0.494141 53.5566 0.494141C47.7669 0.494141 43.0297 5.14722 43.0297 10.8332C43.0297 16.5193 47.7669 21.1722 53.5566 21.1722ZM25.4847 21.1722C31.2744 21.1722 36.0116 16.5193 36.0116 10.8332C36.0116 5.14722 31.2744 0.494141 25.4847 0.494141C19.6951 0.494141 14.9575 5.14722 14.9575 10.8332C14.9575 16.5193 19.6951 21.1722 25.4847 21.1722ZM25.4847 28.7541C17.238 28.7541 0.921631 32.7171 0.921631 40.8163V50.1215H50.549V40.8163C50.549 32.7171 33.731 28.7541 25.4847 28.7541ZM53.5566 30.6501C52.5046 30.6501 51.7774 30.6502 50.549 30.822C54.5857 33.7517 56.0631 35.6468 56.0631 40.8163V50.1215H78.1197V40.8163C78.1197 32.7171 61.8033 30.6501 53.5566 30.6501Z" fill="url(#paint0_linear_2415_1987)"/>
<defs>
<linearGradient id="paint0_linear_2415_1987" x1="39.5207" y1="0.494141" x2="39.5207" y2="50.1215" gradientUnits="userSpaceOnUse">
<stop stop-color="#0033A0"/>
<stop offset="1" stop-color="#97B8FF"/>
</linearGradient>
</defs>
</svg>
