<svg width="17" height="16" viewBox="0 0 17 16" fill="none" xmlns="http://www.w3.org/2000/svg">
<rect opacity="0.1" x="0.450195" width="16" height="16" rx="3.02213" fill="#0033A0"/>
<path d="M7.49663 5.29303C7.36648 3.79588 5.80459 3.06127 5.73848 3.03129C5.67669 3.00224 5.60744 2.99296 5.54018 3.00471C3.73705 3.30387 3.46584 4.35331 3.45493 4.39692C3.4401 4.45769 3.44246 4.5214 3.46175 4.58091C5.61242 11.2537 10.0821 12.4905 11.5513 12.8974C11.6644 12.9287 11.7578 12.9539 11.8286 12.9771C11.9095 13.0035 11.9974 12.9984 12.0746 12.9628C12.1196 12.9423 13.1813 12.4422 13.441 10.8108C13.4525 10.7395 13.441 10.6665 13.4082 10.6022C13.3851 10.5573 12.8297 9.50033 11.2896 9.12689C11.2374 9.11353 11.1826 9.11306 11.1302 9.12552C11.0777 9.13799 11.0291 9.16301 10.9884 9.19844C10.5025 9.61345 9.8313 10.0557 9.54168 10.1014C7.60022 9.1521 6.51602 7.33058 6.47514 6.98508C6.45129 6.79087 6.89627 6.10873 7.40805 5.55403C7.44021 5.51912 7.46471 5.47786 7.47997 5.43291C7.49523 5.38796 7.5009 5.34031 7.49663 5.29303Z" fill="#0033A0"/>
</svg>
